<svg width="161" height="65" viewBox="0 0 161 65" fill="none" xmlns="http://www.w3.org/2000/svg">
<path d="M141.655 37.6505C141.655 41.5368 140.383 44.8586 137.848 47.6126C135.245 50.4603 132.025 51.8794 128.19 51.8794C124.355 51.8794 121.104 50.4697 118.513 47.6407C115.969 44.9085 114.693 41.593 114.693 37.7067C114.693 33.8204 115.966 30.508 118.513 27.7727C121.126 24.9812 124.355 23.5901 128.19 23.5901C132.025 23.5901 135.22 24.9812 137.82 27.7727C140.374 30.4862 141.658 33.783 141.658 37.6474L141.655 37.6505Z" fill="url(#paint0_linear_2072_1203)"/>
<path d="M116.43 36.3748C116.43 37.7472 115.842 38.6704 114.654 39.1351C113.858 39.4314 108.109 39.9835 97.4249 40.7819C97.6706 42.4194 98.5633 43.8105 100.122 44.9645C101.612 46.0593 103.207 46.6114 104.909 46.6114C107.845 46.6114 110.533 45.6601 112.981 43.7637C113.276 43.5267 113.578 43.2771 113.873 43.0401C114.016 43.0401 114.119 43.0588 114.169 43.0962C114.206 43.1337 114.558 43.7824 115.205 45.03C115.861 46.287 116.184 46.9638 116.184 47.0574C116.184 47.1728 116.032 47.3817 115.736 47.6968C113.012 50.6006 109.515 52.0478 105.251 52.0478C100.986 52.0478 97.5088 50.7627 94.9551 48.1802C92.3921 45.6102 91.1074 42.1699 91.1074 37.875C91.1074 34.0449 92.333 30.7044 94.784 27.8568C97.3595 24.9031 100.52 23.4185 104.271 23.4185C107.758 23.4185 110.673 24.7035 113.009 27.2767C115.289 29.7625 116.427 32.8004 116.427 36.3717L116.43 36.3748Z" fill="url(#paint1_linear_2072_1203)"/>
<path d="M92.7862 32.3794C92.7862 34.9994 92.7022 36.5215 92.5405 36.9519C92.2543 37.7909 90.755 40.2362 88.0302 44.294C85.2277 48.436 83.5573 50.6287 83.0254 50.847C82.7579 50.9624 81.9803 51.0186 80.6894 51.0186C79.3986 51.0186 78.6272 50.9624 78.2383 50.847C77.7158 50.6755 76.0237 48.5795 73.1464 44.5435C70.3439 40.6198 68.7762 38.2307 68.4465 37.3729C67.9986 36.2002 67.7715 34.3818 67.7715 31.9334C67.7715 31.1724 67.7901 30.0183 67.8275 28.4963C67.8648 26.9711 67.8835 25.8295 67.8835 25.0685C67.8835 24.6599 68.0919 24.4572 68.4993 24.4572C69.1059 24.4572 70.0204 24.4759 71.2335 24.532C72.4497 24.5882 73.3611 24.6162 73.977 24.6162C74.3098 24.6162 74.4715 24.8065 74.4715 25.1776C74.4715 25.7671 74.4435 26.6436 74.3658 27.8163C74.2911 28.9766 74.2507 29.853 74.2507 30.4456C74.2507 32.1611 74.3471 33.7206 74.5275 35.1397C74.6208 35.8446 75.5633 37.5694 77.3581 40.3204C79.1435 43.0807 80.254 44.4531 80.6832 44.4531C81.1125 44.4531 82.0985 43.0994 83.7128 40.4046C85.3085 37.7659 86.1639 36.1004 86.2759 35.4142C86.419 34.4816 86.4936 32.8816 86.4936 30.6141C86.4936 30.0059 86.4377 29.0795 86.3132 27.8537C86.1888 26.6249 86.1328 25.7016 86.1328 25.0903C86.1328 24.8127 86.2759 24.6724 86.5496 24.6724C87.1593 24.6724 88.0613 24.6443 89.2464 24.5757C90.4347 24.5102 91.3274 24.4696 91.9153 24.4696C92.5031 24.4696 92.78 27.1083 92.78 32.3732L92.7862 32.3794Z" fill="url(#paint2_linear_2072_1203)"/>
<path d="M69.3603 37.6505C69.3603 41.5368 68.0881 44.8586 65.5531 47.6126C62.9496 50.4603 59.7302 51.8794 55.8949 51.8794C52.0597 51.8794 48.8092 50.4697 46.2181 47.6407C43.6737 44.9085 42.3984 41.593 42.3984 37.7067C42.3984 33.8204 43.6706 30.508 46.2181 27.7727C48.831 24.9812 52.0597 23.5901 55.8949 23.5901C59.7302 23.5901 62.9247 24.9812 65.5251 27.7727C68.0788 30.4862 69.3635 33.783 69.3635 37.6474L69.3603 37.6505Z" fill="url(#paint3_linear_2072_1203)"/>
<path d="M43.2143 50.3635C43.2143 51.0872 42.9966 51.449 42.5767 51.449C42.2905 51.449 41.8737 51.4209 41.3045 51.3647C40.7446 51.3086 40.306 51.2805 40.0136 51.2805C39.6994 51.2805 39.2266 51.2992 38.5983 51.3367C37.9607 51.3741 37.4879 51.3928 37.1737 51.3928C36.7849 51.3928 36.5952 50.9562 36.5952 50.0797C36.5952 49.2033 36.6231 47.9463 36.6885 46.2433C36.7538 44.5466 36.7849 43.2616 36.7849 42.4132C36.7849 37.7004 36.7662 35.0804 36.7289 34.5377C36.5858 32.6227 36.197 31.3096 35.5594 30.5766C34.8377 29.7968 33.5469 29.4038 31.693 29.4038C30.5234 29.4038 29.2046 29.9653 27.7426 31.0788C26.2216 32.2515 25.4346 33.4024 25.3787 34.5346C25.304 35.9912 25.2636 38.6392 25.2636 42.4881C25.2636 43.4019 25.3009 44.7743 25.3787 46.5927C25.4533 48.4111 25.4937 49.7834 25.4937 50.6973C25.4937 51.1932 25.3227 51.449 24.9898 51.449C24.657 51.449 24.1718 51.4209 23.5279 51.3647C22.8902 51.3086 22.4081 51.2805 22.066 51.2805C21.7705 51.2805 21.335 51.2992 20.7658 51.3367C20.1872 51.3741 19.7486 51.3928 19.4562 51.3928C19.0861 51.3928 18.8963 51.1277 18.8963 50.5819C18.8963 49.6867 18.9243 48.3424 18.9803 46.5521C19.0363 44.7525 19.0643 43.4082 19.0643 42.513V35.7884C19.0643 33.6925 18.8186 32.1891 18.3147 31.3033C17.6117 30.037 16.2649 29.3976 14.2772 29.3976C13.1077 29.3976 11.7235 29.8935 10.106 30.8823C8.32061 31.9583 7.4279 33.0437 7.4279 34.1385V42.2916C7.4279 43.2241 7.43723 44.6059 7.45589 46.443C7.47456 48.2894 7.48389 49.6618 7.48389 50.5756C7.48389 51.1183 7.27548 51.3866 6.84623 51.3866H1.67034C1.30019 51.3866 1.11045 51.1402 1.11045 50.6349C1.11045 49.1315 1.11978 46.864 1.13845 43.8448C1.15711 40.8163 1.16644 38.5488 1.16644 37.0454C1.16644 33.6457 0.805622 30.246 0.0839838 26.865C0.0279946 26.6186 0 26.4283 0 26.2755C0 26.0384 0.0839838 25.895 0.255062 25.8575C0.939374 25.792 1.93474 25.6486 3.2567 25.4396C3.86325 25.2587 4.78708 25.0497 6.01262 24.8283L6.23035 24.8002C6.45742 24.8002 6.66582 25.4583 6.85556 26.7714C7.05464 28.0752 7.22571 28.7333 7.37813 28.7333C7.37813 28.7333 7.83537 28.3247 8.76542 27.5044C9.85721 26.5624 10.949 25.7983 12.0532 25.2462C13.6303 24.4259 15.2073 24.0173 16.7843 24.0173C21.0488 24.0173 23.7643 25.7702 24.9338 29.2666C26.0847 27.7726 27.5187 26.5531 29.217 25.58C31.0398 24.5413 32.8345 24.0173 34.62 24.0173C38.0478 24.0173 40.4242 25.0185 41.743 27.0272C42.6824 28.5212 43.1583 30.8729 43.1583 34.0948C43.1583 34.703 43.1397 35.6575 43.1023 36.9331C43.065 38.2182 43.0463 39.1726 43.0463 39.7808C43.0463 40.9535 43.0743 42.7158 43.1303 45.0675C43.1863 47.4192 43.2174 49.1908 43.2174 50.3635H43.2143Z" fill="url(#paint4_linear_2072_1203)"/>
<path d="M135.786 37.7098C135.786 35.4423 135.093 33.5085 133.696 31.9084C132.253 30.2117 130.421 29.3665 128.188 29.3665C125.954 29.3665 124.113 30.2055 122.651 31.8804C121.264 33.4991 120.561 35.4423 120.561 37.7098C120.561 39.9773 121.273 41.8799 122.679 43.5111C124.159 45.2453 126.004 46.1124 128.188 46.1124C130.371 46.1124 132.234 45.2453 133.696 43.5111C135.093 41.883 135.786 39.9399 135.786 37.7098Z" fill="white"/>
<path d="M109.81 34.6718C109.81 33.1279 109.204 31.7587 107.988 30.5672C106.771 29.3757 105.403 28.7863 103.885 28.7863C102.174 28.7863 100.665 29.4724 99.3341 30.8542C98.0059 32.2265 97.3496 33.7673 97.3496 35.4828C97.3496 35.8726 97.6824 36.0722 98.3481 36.0722C101.092 36.0722 104.379 35.7853 108.196 35.2332C109.269 35.0804 109.81 34.8901 109.81 34.6718Z" fill="white"/>
<path d="M63.4916 37.7098C63.4916 35.4423 62.7979 33.5085 61.4013 31.9084C59.958 30.2117 58.1228 29.3665 55.8926 29.3665C53.6624 29.3665 51.8178 30.2055 50.3559 31.8804C48.9686 33.4991 48.2656 35.4423 48.2656 37.7098C48.2656 39.9773 48.9779 41.8799 50.3839 43.5111C51.8645 45.2453 53.709 46.1124 55.8926 46.1124C58.0762 46.1124 59.9394 45.2453 61.4013 43.5111C62.7979 41.883 63.4916 39.9399 63.4916 37.7098Z" fill="white"/>
<path fill-rule="evenodd" clip-rule="evenodd" d="M1.10352 55.3134C13.0883 60.232 48.8841 77.0528 70.275 50.0017C56.5266 63.3791 36.3114 63.4789 1.10352 55.3134Z" fill="url(#paint5_linear_2072_1203)"/>
<path fill-rule="evenodd" clip-rule="evenodd" d="M161.001 10.6992C112.315 -14.3432 86.6411 10.7086 78.6035 23.6961C87.8293 12.8389 115.052 -11.2024 161.001 10.6992Z" fill="url(#paint6_linear_2072_1203)"/>
<path d="M136.655 18.0663H119.693V21.0356H136.655V18.0663Z" fill="url(#paint7_linear_2072_1203)"/>
<path d="M64.9655 19.9751C58.3277 23.7959 54.2374 23.6836 48.0039 19.9751V17.0059C54.8812 21.0886 58.9685 20.0063 64.9655 17.0059V19.9751Z" fill="url(#paint8_linear_2072_1203)"/>
<defs>
<linearGradient id="paint0_linear_2072_1203" x1="114.69" y1="37.7379" x2="141.655" y2="37.7379" gradientUnits="userSpaceOnUse">
<stop stop-color="#BA351F"/>
<stop offset="1" stop-color="#C00D0D"/>
</linearGradient>
<linearGradient id="paint1_linear_2072_1203" x1="90.983" y1="37.7378" x2="116.558" y2="37.7378" gradientUnits="userSpaceOnUse">
<stop stop-color="#B5563D"/>
<stop offset="1" stop-color="#BA351F"/>
</linearGradient>
<linearGradient id="paint2_linear_2072_1203" x1="67.7684" y1="37.7379" x2="92.7862" y2="37.7379" gradientUnits="userSpaceOnUse">
<stop stop-color="#AB7561"/>
<stop offset="1" stop-color="#B5563D"/>
</linearGradient>
<linearGradient id="paint3_linear_2072_1203" x1="42.3984" y1="37.7379" x2="69.3603" y2="37.7379" gradientUnits="userSpaceOnUse">
<stop stop-color="#9D8980"/>
<stop offset="1" stop-color="#AB7561"/>
</linearGradient>
<linearGradient id="paint4_linear_2072_1203" x1="0" y1="37.7347" x2="43.2143" y2="37.7347" gradientUnits="userSpaceOnUse">
<stop stop-color="#929292"/>
<stop offset="1" stop-color="#9D8980"/>
</linearGradient>
<linearGradient id="paint5_linear_2072_1203" x1="-60.4784" y1="57.4998" x2="131.86" y2="57.4998" gradientUnits="userSpaceOnUse">
<stop stop-color="#929292"/>
<stop offset="1" stop-color="#AB7561"/>
</linearGradient>
<linearGradient id="paint6_linear_2072_1203" x1="78.6035" y1="11.847" x2="161.001" y2="11.847" gradientUnits="userSpaceOnUse">
<stop stop-color="#AB7561"/>
<stop offset="1" stop-color="#C00D0D"/>
</linearGradient>
<linearGradient id="paint7_linear_2072_1203" x1="119.693" y1="19.5509" x2="136.655" y2="19.5509" gradientUnits="userSpaceOnUse">
<stop stop-color="#BA351F"/>
<stop offset="1" stop-color="#C00D0D"/>
</linearGradient>
<linearGradient id="paint8_linear_2072_1203" x1="47.1827" y1="19.9034" x2="65.7867" y2="19.9034" gradientUnits="userSpaceOnUse">
<stop stop-color="#9D8980"/>
<stop offset="1" stop-color="#AB7561"/>
</linearGradient>
</defs>
</svg>
