<svg width="100" height="100" viewBox="0 0 100 100" fill="none" xmlns="http://www.w3.org/2000/svg">
<path d="M69.5117 4.84961C72.0335 4.8497 74.0801 6.93271 74.0801 9.48828V19.4424C74.0801 21.9804 72.0324 24.0468 69.5117 24.0469H60.71C57.8155 25.0249 56.0249 27.7551 55.4004 32.2227C56.3684 32.4613 57.1064 33.3055 57.1064 34.3594V38.543C57.1064 39.7587 56.0874 40.786 54.877 40.7861H54.3779C54.4885 43.3029 54.6066 45.9854 54.7354 48.8535L55.168 58.2383V58.2393C55.4829 66.0831 55.889 75.3585 56.3838 86.4209L56.4043 86.8164H56.4033C56.404 86.8278 56.4043 86.8377 56.4033 86.8457L56.4717 88.375V88.376C56.5481 90.1582 55.9157 91.8426 54.6934 93.1211L54.6943 93.1221C53.4835 94.4269 51.8113 95.1503 49.999 95.1504C48.3056 95.1504 46.6808 94.4985 45.4932 93.3486L45.2617 93.1123C44.0671 91.8225 43.4507 90.1407 43.5273 88.3779L43.6133 86.3496L43.6943 84.2646V84.2627C43.6951 84.2472 43.6978 84.234 43.7002 84.2246C43.701 84.2215 43.7014 84.2184 43.7021 84.2158C44.1299 74.1122 44.5066 65.5576 44.8301 58.2412C45.0781 52.4227 45.3305 46.6043 45.5869 40.7861H45.1201C43.8902 40.7859 42.8906 39.7782 42.8906 38.543V34.3594C42.8906 33.2994 43.6031 32.4714 44.5664 32.2275C43.9419 27.692 42.1934 25.0273 39.2578 24.0469H30.4873C27.9666 24.0468 25.918 21.9805 25.918 19.4424V9.48828C25.918 6.93266 27.9655 4.84964 30.4873 4.84961H69.5117ZM45.5127 88.4619C45.4604 89.6931 45.8875 90.864 46.7188 91.7607C47.5445 92.6509 48.7408 93.1631 49.999 93.1631C51.2553 93.163 52.408 92.6636 53.248 91.7588L53.249 91.7578C54.0502 90.9211 54.4826 89.8434 54.4902 88.6924L54.4863 88.4619L54.46 87.8613H45.5371L45.5127 88.4619ZM45.6211 85.874H54.3662L54.3359 85.2969H45.6455L45.6211 85.874ZM46.8154 58.3271C46.5025 65.4024 46.1396 73.6394 45.7295 83.3096H54.2568C53.8264 73.6392 53.4681 65.4005 53.1836 58.3252C52.8675 51.6923 52.6128 45.8899 52.3887 40.7852H47.5762L46.8154 58.3271ZM45.1201 34.1035C45.0387 34.1036 44.9816 34.1315 44.9443 34.1699C44.9067 34.2088 44.878 34.2702 44.8779 34.3584V38.543C44.8779 38.6774 44.9749 38.7977 45.1201 38.7979H54.877C54.929 38.7979 54.9903 38.7719 55.041 38.7197C55.0916 38.6676 55.1191 38.6018 55.1191 38.543V34.3584C55.1189 34.1968 54.996 34.1035 54.877 34.1035H45.1201ZM43.0693 24.0469C44.9346 25.8133 46.1013 28.5193 46.5742 32.1162H53.3906C53.8627 28.5213 55.0329 25.8151 56.9014 24.0469H43.0693ZM30.4873 6.83789C29.0669 6.83792 27.9053 8.0226 27.9053 9.48828V19.4424C27.9053 20.8876 29.0652 22.0595 30.4873 22.0596H69.5117C70.9336 22.0595 72.0928 20.8875 72.0928 19.4424V9.48828C72.0928 8.02257 70.932 6.83789 69.5117 6.83789H30.4873Z" fill="#0066FF" stroke="#0066FF" stroke-width="0.3"/>
<path d="M68.376 16.6606C68.5063 16.6607 68.6354 16.6869 68.7559 16.7368C68.8764 16.7868 68.9859 16.8604 69.0781 16.9526C69.1703 17.0449 69.2441 17.1544 69.2939 17.2749C69.3437 17.3953 69.3692 17.5245 69.3691 17.6548C69.3692 17.7853 69.3439 17.915 69.2939 18.0356C69.244 18.1561 69.1703 18.2657 69.0781 18.3579C68.9859 18.4501 68.8763 18.5229 68.7559 18.5728C68.6354 18.6226 68.5063 18.6479 68.376 18.6479V18.6489H31.5898C31.4594 18.6489 31.3305 18.6226 31.21 18.5728C31.0894 18.5228 30.979 18.4502 30.8867 18.3579C30.7946 18.2657 30.7218 18.156 30.6719 18.0356C30.6219 17.9151 30.5957 17.7853 30.5957 17.6548C30.5957 17.5244 30.622 17.3954 30.6719 17.2749C30.7218 17.1543 30.7944 17.044 30.8867 16.9517C30.979 16.8594 31.0894 16.7867 31.21 16.7368C31.3305 16.687 31.4594 16.6606 31.5898 16.6606H68.376ZM68.376 12.813C68.6393 12.8131 68.8919 12.9178 69.0781 13.104C69.2645 13.2904 69.3691 13.5436 69.3691 13.8071C69.369 14.0705 69.2644 14.323 69.0781 14.5093C68.8919 14.6955 68.6394 14.8002 68.376 14.8003H31.5898C31.4595 14.8003 31.3304 14.7749 31.21 14.7251C31.0894 14.6752 30.979 14.6016 30.8867 14.5093C30.7946 14.4171 30.7217 14.3075 30.6719 14.187C30.622 14.0664 30.5956 13.9367 30.5957 13.8062C30.5957 13.6758 30.622 13.5467 30.6719 13.4263C30.7218 13.3058 30.7946 13.1962 30.8867 13.104C30.979 13.0117 31.0893 12.9381 31.21 12.8882C31.3304 12.8384 31.4595 12.8129 31.5898 12.813H68.376ZM68.376 9.00049V9.00146C68.5063 9.0015 68.6355 9.0268 68.7559 9.07666C68.8763 9.12655 68.9859 9.19936 69.0781 9.2915C69.1703 9.38371 69.244 9.4933 69.2939 9.61377C69.3439 9.73434 69.3692 9.86414 69.3691 9.99463C69.3692 10.1249 69.3437 10.2541 69.2939 10.3745C69.244 10.4951 69.1704 10.6054 69.0781 10.6978C68.9859 10.7899 68.8763 10.8627 68.7559 10.9126C68.6354 10.9625 68.5063 10.9868 68.376 10.9868V10.9878H31.5898C31.4595 10.9878 31.3304 10.9624 31.21 10.9126C31.0894 10.8627 30.979 10.79 30.8867 10.6978C30.7944 10.6055 30.7218 10.4951 30.6719 10.3745C30.622 10.254 30.5957 10.125 30.5957 9.99463C30.5956 9.8641 30.6219 9.73437 30.6719 9.61377C30.7218 9.49337 30.7946 9.38367 30.8867 9.2915C30.979 9.19922 31.0893 9.12656 31.21 9.07666C31.3305 9.02683 31.4594 9.00042 31.5898 9.00049H68.376Z" fill="#0066FF" stroke="#0066FF" stroke-width="0.3"/>
</svg>
