<svg width="100" height="100" viewBox="0 0 100 100" fill="none" xmlns="http://www.w3.org/2000/svg">
<path d="M56.6377 11.4414C56.8777 11.0843 57.3564 10.8457 57.8389 10.9639C63.6057 12.0517 68.1368 14.5138 71.3984 18.3252C74.6533 22.1287 76.6405 27.271 77.3359 33.7197C79.5284 34.081 81.2558 35.9215 81.2559 38.2217V47.3174H83.3936C85.954 47.3174 88.0496 49.3975 88.0498 51.9404V84.4092C88.0498 86.9523 85.9542 89.0322 83.3936 89.0322H16.6064C14.0458 89.0322 11.9502 86.9523 11.9502 84.4092V51.9404C11.9504 49.3975 14.046 47.3174 16.6064 47.3174H18.6289V38.2217C18.6289 35.6786 20.7246 33.5986 23.2852 33.5986H24.1826C30.0702 26.0516 40.557 22.6271 56.1973 23.1943C57.4456 21.9487 58.0973 20.5082 58.1543 18.7852C58.2115 17.0531 57.6682 15.0319 56.5186 12.6348V12.6338C56.2769 12.2663 56.4045 11.7887 56.6377 11.4414ZM16.6064 49.7041C15.3672 49.7041 14.3537 50.711 14.3535 51.9404V84.4092C14.3535 85.6388 15.3671 86.6455 16.6064 86.6455H83.3936C84.633 86.6455 85.6465 85.6388 85.6465 84.4092V51.9404C85.6463 50.711 84.6328 49.7041 83.3936 49.7041H16.6064ZM23.4004 35.9854C22.161 35.9854 21.1465 36.9921 21.1465 38.2217V47.3174H78.9678V38.2217C78.9677 36.9921 77.9542 35.9854 76.7148 35.9854H23.4004ZM59.6377 13.8301C60.5336 16.1999 60.8138 18.3226 60.4707 20.2246C60.1231 22.1511 59.1376 23.8457 57.5195 25.3379C57.4015 25.455 57.282 25.5452 57.1455 25.6055C57.0086 25.6659 56.8572 25.6963 56.6787 25.6963H56.6768C42.7003 25.1276 33.0724 27.7297 27.4336 33.5986H74.9316C74.2947 28.2004 72.7161 23.8555 70.1699 20.5605C67.6328 17.2775 64.132 15.0342 59.6377 13.8301Z" fill="#0066FF" stroke="#0066FF" stroke-width="0.1"/>
<path d="M79.8516 53.9326C80.5712 53.9326 81.0498 54.5318 81.0498 55.1299V80.835C81.0498 81.1905 80.9312 81.4907 80.7197 81.7021C80.5082 81.9136 80.2074 82.0322 79.8516 82.0322H20.1484C19.7926 82.0322 19.4918 81.9136 19.2803 81.7021C19.0688 81.4907 18.9502 81.1905 18.9502 80.835V55.1299C18.9502 54.7743 19.0688 54.4741 19.2803 54.2627C19.4918 54.0512 19.7926 53.9326 20.1484 53.9326H79.8516ZM21.3467 79.6377H78.6533V56.3271H21.3467V79.6377Z" fill="#0066FF" stroke="#0066FF" stroke-width="0.1"/>
<path d="M66.5 21C66.5 22.1046 65.6046 23 64.5 23C63.3954 23 62.5 22.1046 62.5 21C62.5 19.8954 63.3954 19 64.5 19C65.6046 19 66.5 19.8954 66.5 21Z" fill="#0066FF"/>
<circle cx="69" cy="30" r="2" fill="#0066FF"/>
<circle cx="62" cy="28" r="2" fill="#0066FF"/>
<circle cx="53" cy="30" r="2" fill="#0066FF"/>
<circle cx="44" cy="29" r="2" fill="#0066FF"/>
<circle cx="37" cy="31" r="2" fill="#0066FF"/>
<path d="M8 97L88 17" stroke="#0066FF" stroke-width="2.4"/>
</svg>
