<svg width="100" height="100" viewBox="0 0 100 100" fill="none" xmlns="http://www.w3.org/2000/svg">
<path d="M74.1172 46.6514C74.3605 46.6514 74.5997 46.7158 74.8096 46.8389C75.0195 46.962 75.1927 47.1392 75.3115 47.3516L75.498 47.6689C77.4899 50.9218 81.6025 53.3456 85.2002 54.9629C88.9357 56.6422 92.222 57.4975 92.2998 57.5176L92.3008 57.5186C92.5956 57.5938 92.8571 57.7647 93.0439 58.0049C93.2073 58.2151 93.306 58.4678 93.3281 58.7314L93.333 58.8457V71.6943C93.333 78.4153 89.7139 84.6759 83.8906 88.0303L74.7998 93.2676C74.5922 93.3871 74.3568 93.4502 74.1172 93.4502C73.8771 93.4501 73.6397 93.3864 73.4316 93.2666L64.3428 88.0303C58.5201 84.6759 54.9023 78.4153 54.9023 71.6943V58.8457C54.9025 58.5413 55.0036 58.2452 55.1904 58.0049C55.3772 57.7646 55.6388 57.5939 55.9336 57.5186L55.9346 57.5176C56.0098 57.4982 59.2972 56.6429 63.0342 54.9629C66.7478 53.2934 71.0108 50.7646 72.9229 47.3516L73.0215 47.1992C73.1302 47.054 73.2673 46.9313 73.4248 46.8389C73.6347 46.7158 73.8738 46.6514 74.1172 46.6514ZM73.8135 50.8145C71.64 53.3515 68.492 55.3526 65.458 56.8467C62.4292 58.3382 59.5444 59.3099 57.9248 59.7998L57.6406 59.8857V71.6953C57.6408 77.4403 60.7322 82.7897 65.71 85.6572L73.918 90.3857L74.1172 90.501L82.5244 85.6572C87.5023 82.7897 90.5946 77.4404 90.5947 71.6953V59.8857L90.3105 59.7998C88.6908 59.3099 85.8052 58.3382 82.7764 56.8467C79.7423 55.3526 76.5942 53.3516 74.4209 50.8145L74.1172 50.46L73.8135 50.8145Z" fill="#0066FF"/>
<path d="M50 81.2227C50.7563 81.2227 51.3689 81.8354 51.3691 82.5918V93.2305C51.3692 93.4103 51.3344 93.5887 51.2656 93.7549C51.1968 93.921 51.0959 94.0721 50.9688 94.1992C50.8416 94.3264 50.6906 94.4273 50.5244 94.4961C50.3583 94.5649 50.1798 94.5997 50 94.5996C49.8204 94.5996 49.6425 94.5648 49.4766 94.4961C49.3106 94.4273 49.1593 94.3262 49.0322 94.1992C48.9051 94.0721 48.8042 93.9209 48.7354 93.7549C48.6665 93.5887 48.6308 93.4103 48.6309 93.2305V82.5918C48.6311 81.8356 49.2437 81.2228 50 81.2227ZM32.5186 77.541C32.8967 76.8865 33.7344 76.6618 34.3887 77.04C35.0433 77.418 35.2677 78.2557 34.8896 78.9102L29.5703 88.124C29.4501 88.3323 29.2767 88.5048 29.0684 88.625C28.8601 88.7451 28.6242 88.8087 28.3838 88.8086C28.1524 88.8086 27.9169 88.7492 27.7002 88.624C27.0455 88.246 26.8209 87.4084 27.1992 86.7539L32.5186 77.541ZM85.4336 63.8613C86.1898 63.8615 86.8027 64.4742 86.8027 65.2305V71.0928C86.8027 75.3933 84.5592 79.4097 80.9209 81.6709L80.5645 81.8838L74.8018 85.2041C74.594 85.3238 74.358 85.3867 74.1182 85.3867C73.8781 85.3866 73.6427 85.3238 73.4346 85.2041L67.6709 81.8838C63.8246 79.668 61.4346 75.5321 61.4346 71.0928V65.2305C61.4346 64.474 62.0473 63.8613 62.8037 63.8613C63.56 63.8614 64.1728 64.474 64.1729 65.2305V71.0928C64.1729 74.5568 66.0374 77.7818 69.0381 79.5107L73.9189 82.3223L74.1182 82.4375L79.1982 79.5107C82.2 77.7817 84.0645 74.5568 84.0645 71.0928V65.2305C84.0645 64.474 84.6772 63.8613 85.4336 63.8613ZM21.0889 65.1104C21.7462 64.7316 22.5827 64.957 22.96 65.6113C23.3382 66.2658 23.1135 67.1034 22.459 67.4814L13.2461 72.8008L13.2451 72.8018C13.0379 72.9221 12.8021 72.9853 12.5625 72.9854C12.3219 72.9856 12.0853 72.922 11.877 72.8018C11.6687 72.6815 11.4951 72.5082 11.375 72.2998C10.9967 71.6453 11.2214 70.8077 11.876 70.4297L21.0889 65.1104ZM93.2305 48.6309C93.987 48.6309 94.5996 49.2436 94.5996 50C94.5994 50.7563 93.9868 51.3691 93.2305 51.3691H86.7393C85.9831 51.369 85.3703 50.7562 85.3701 50C85.3701 49.2436 85.9829 48.631 86.7393 48.6309H93.2305ZM17.4072 48.6309C18.1638 48.6309 18.7773 49.2436 18.7773 50C18.7771 50.7563 18.1636 51.3691 17.4072 51.3691H6.76953C6.01324 51.3691 5.40061 50.7564 5.40039 50C5.40039 49.2435 6.01305 48.6309 6.76953 48.6309H17.4072ZM49.8301 32.2197C50.0099 32.2197 50.1884 32.2554 50.3545 32.3242C50.5206 32.393 50.6717 32.494 50.7988 32.6211C50.9258 32.7481 51.027 32.8986 51.0957 33.0645C51.1645 33.2306 51.1993 33.4091 51.1992 33.5889C51.1993 33.7687 51.1645 33.9471 51.0957 34.1133C51.0269 34.2794 50.926 34.4305 50.7988 34.5576C50.6717 34.6848 50.5206 34.7857 50.3545 34.8545C50.1884 34.9233 50.0099 34.958 49.8301 34.958C41.5361 34.9582 34.7891 41.706 34.7891 50C34.7891 50.1797 34.7533 50.3574 34.6846 50.5234C34.6158 50.6896 34.5148 50.8406 34.3877 50.9678C34.2607 51.0948 34.1102 51.1959 33.9443 51.2646C33.7782 51.3334 33.5997 51.3692 33.4199 51.3691C33.2401 51.3692 33.0617 51.3335 32.8955 51.2646C32.7295 51.1958 32.5783 51.0949 32.4512 50.9678C32.3241 50.8407 32.2231 50.6895 32.1543 50.5234C32.0856 50.3575 32.0508 50.1796 32.0508 50C32.0508 40.1968 40.0267 32.2199 49.8301 32.2197ZM86.8789 27.1357C87.5129 26.8511 88.2708 27.0866 88.625 27.7002C89.0032 28.3545 88.7786 29.1923 88.124 29.5703L78.9092 34.8896C78.7021 35.01 78.467 35.0732 78.2275 35.0732C77.987 35.0735 77.7503 35.0108 77.542 34.8906C77.3336 34.7704 77.1602 34.5971 77.04 34.3887C76.6618 33.7343 76.8864 32.8967 77.541 32.5186L86.7539 27.1992L86.8789 27.1357ZM11.375 27.7002C11.7538 27.0461 12.5912 26.8213 13.2461 27.1992L22.459 32.5186C23.0727 32.873 23.3081 33.631 23.0234 34.2637L22.96 34.3887C22.8397 34.5971 22.6664 34.7704 22.458 34.8906C22.2496 35.0109 22.013 35.0734 21.7725 35.0732C21.5411 35.0732 21.3052 35.0146 21.0889 34.8896L11.876 29.5703C11.2214 29.1923 10.9967 28.3547 11.375 27.7002ZM28.2061 11.2031C28.3842 11.1796 28.5657 11.1908 28.7393 11.2373C28.9127 11.2838 29.0753 11.3643 29.2178 11.4736C29.3604 11.5831 29.4805 11.7202 29.5703 11.876L34.8887 21.0889C35.2669 21.7433 35.0431 22.5809 34.3887 22.959L34.3867 22.96C34.1798 23.0803 33.9444 23.1436 33.7051 23.1436C33.4645 23.1438 33.2279 23.0812 33.0195 22.9609C32.8113 22.8407 32.6377 22.6673 32.5176 22.459L27.1992 13.2451C26.821 12.5906 27.0454 11.7532 27.7002 11.375C27.8558 11.285 28.0279 11.2267 28.2061 11.2031ZM70.4297 11.877C70.8079 11.2223 71.6454 10.9963 72.2998 11.375C72.9546 11.753 73.1791 12.5914 72.8008 13.2461L67.4824 22.459C67.3621 22.6673 67.1889 22.8407 66.9805 22.9609C66.7721 23.0811 66.5355 23.1437 66.2949 23.1436C66.0554 23.1436 65.8184 23.0803 65.6113 22.96C64.9568 22.582 64.7324 21.7442 65.1104 21.0898L70.4297 11.877ZM50 5.40039C50.7565 5.40039 51.3691 6.01304 51.3691 6.76953V17.4082C51.3691 17.5878 51.3343 17.7657 51.2656 17.9316C51.1969 18.0977 51.0958 18.2488 50.9688 18.376C50.8416 18.5031 50.6905 18.6041 50.5244 18.6729C50.3583 18.7417 50.1798 18.7774 50 18.7773C49.8204 18.7773 49.6425 18.7415 49.4766 18.6729C49.3105 18.6041 49.1593 18.503 49.0322 18.376C48.9051 18.2488 48.8042 18.0978 48.7354 17.9316C48.6665 17.7655 48.6308 17.5871 48.6309 17.4072V6.76953C48.6309 6.01317 49.2435 5.4005 50 5.40039Z" fill="#0066FF"/>
<path d="M50 23.4434C60.5804 23.4435 70.1436 29.7137 74.3633 39.418C74.6651 40.1118 74.3476 40.9186 73.6543 41.2197H73.6523C73.0042 41.504 72.2549 41.2415 71.915 40.6357L71.8525 40.5098L71.6719 40.1035C67.7992 31.631 59.3412 26.1817 50 26.1816C36.8664 26.1816 26.1817 36.866 26.1816 49.999C26.1816 63.133 36.8663 73.8174 50 73.8174C50.1797 73.8174 50.3574 73.8532 50.5234 73.9219C50.6896 73.9907 50.8406 74.0916 50.9678 74.2188C51.0949 74.3459 51.1959 74.497 51.2646 74.6631C51.3333 74.8291 51.3691 75.0069 51.3691 75.1865C51.3692 75.3663 51.3334 75.5448 51.2646 75.7109C51.1959 75.877 51.0949 76.0282 50.9678 76.1553C50.8407 76.2823 50.6895 76.3834 50.5234 76.4521C50.3575 76.5208 50.1796 76.5567 50 76.5566C35.3567 76.5566 23.4434 64.6425 23.4434 49.999C23.4435 35.3564 35.3568 23.4434 50 23.4434Z" fill="#0066FF"/>
</svg>
