<svg width="100" height="100" viewBox="0 0 100 100" fill="none" xmlns="http://www.w3.org/2000/svg">
<path d="M8.79976 72.9334C10.6664 74.4 13.1998 75.2 16.5331 75.2C17.8664 75.2 19.3331 75.0667 20.9331 74.8C22.3998 74.5334 23.8664 73.6 25.4664 72.5334C26.6664 71.7334 27.9998 70.8 28.7998 70.6667C29.9998 70.4 32.2664 70.9334 34.3998 71.3334C37.8664 72.1334 41.4664 72.9334 43.7331 71.3334C44.2664 70.9334 45.8664 69.8667 46.6664 62.8C46.7998 61.4667 47.5998 60.2667 48.7998 59.4667C54.3998 55.4667 59.9998 51.6 65.1998 47.8667C63.3331 54.6667 61.3331 61.6 59.1998 64.9334C59.1998 64.9334 59.1998 65.0667 59.0664 65.0667C56.2664 71.8667 52.5331 76.8 47.8664 80.2667C47.3331 80.6667 47.1998 81.4667 47.5998 82.1334C47.7331 82.2667 49.3331 84.5334 52.7998 84.9334H53.7331C56.9331 84.9334 60.2664 83.3334 63.8664 80C64.9331 79.0667 65.7331 77.3334 66.5331 75.6C67.0664 74.2667 67.7331 72.9334 68.3998 72.2667C69.3331 71.3334 71.4664 70.5334 73.5998 69.8667C76.9331 68.6667 80.3998 67.4667 81.3331 65.0667C81.8664 64 82.1331 62 79.3331 56.1334C78.6664 54.9334 78.6664 53.6 79.3331 52.2667L80.5331 49.3334C84.1331 40.5334 87.9998 31.4667 90.7998 23.2C92.1331 21.0667 93.1998 18.8 93.8664 16.6667C94.1331 16 93.5998 15.2 92.9331 15.0667C92.2664 14.8 91.4664 15.3334 91.3331 16C87.5998 28.9334 67.0664 43.3334 47.0664 57.3334C45.3331 58.5334 44.1331 60.4 43.8664 62.5334C43.3331 67.2 42.3998 68.9334 41.9998 69.2C40.7998 70 37.4664 69.3334 34.9331 68.8C32.3998 68.2667 29.9998 67.7334 28.1331 68.1334C26.7998 68.4 25.3331 69.3334 23.8664 70.4C22.6664 71.2 21.1998 72.1334 20.3998 72.2667C15.9998 73.0667 12.5331 72.5334 10.5331 70.9334C9.73309 70.2667 9.19976 69.6 8.93309 68.9334C14.6664 68.1334 20.2664 65.8667 26.1331 61.7334C31.1998 59.2 38.7998 51.8667 47.7331 43.3334C54.6664 36.6667 62.5331 29.0667 70.3998 22.6667C70.9331 22.2667 71.0664 21.3334 70.5331 20.8C70.1331 20.2667 69.1998 20.1334 68.6664 20.6667C60.7998 27.0667 52.9331 34.6667 45.8664 41.3334C37.0664 49.7334 29.5998 56.9334 24.9331 59.3334C24.9331 59.3334 24.7998 59.3334 24.7998 59.4667C18.7998 63.7334 13.0664 66 7.33309 66.4C6.66643 66.4 6.13309 67.0667 6.13309 67.8667C5.99976 68 6.26643 70.8 8.79976 72.9334ZM85.5998 30.1334C83.3331 36.1334 80.7998 42.2667 78.2664 48.4L77.0664 51.3334C76.1331 53.3334 76.2664 55.4667 77.1998 57.4667C79.7331 62.8 79.1998 64 79.0664 64.1334C78.5331 65.4667 75.3331 66.6667 72.7998 67.6C70.2664 68.5334 67.9998 69.3334 66.6664 70.6667C65.7331 71.6 64.9331 73.0667 64.2664 74.8C63.5998 76.1334 62.9331 77.7334 62.2664 78.2667C58.9331 81.3334 55.7331 82.6667 53.1998 82.5334C52.1331 82.4 51.3331 82.1334 50.7998 81.7334C55.1998 78 58.7998 73.0667 61.5998 66.5334C63.7331 63.0667 65.7331 56.9334 68.5331 45.4667C75.1998 40.1334 81.0664 35.2 85.5998 30.1334Z" fill="#0066FF"/>
</svg>
