<svg width="100" height="100" viewBox="0 0 100 100" fill="none" xmlns="http://www.w3.org/2000/svg">
<path d="M56.6377 11.4414C56.8777 11.0843 57.3564 10.8457 57.8389 10.9639C63.6057 12.0517 68.1368 14.5138 71.3984 18.3252C74.6533 22.1287 76.6405 27.271 77.3359 33.7197C79.5284 34.081 81.2558 35.9215 81.2559 38.2217V47.3174H83.3936C85.954 47.3174 88.0496 49.3975 88.0498 51.9404V84.4092C88.0498 86.9523 85.9542 89.0322 83.3936 89.0322H16.6064C14.0458 89.0322 11.9502 86.9523 11.9502 84.4092V51.9404C11.9504 49.3975 14.046 47.3174 16.6064 47.3174H18.6289V38.2217C18.6289 35.6786 20.7246 33.5986 23.2852 33.5986H24.1826C30.0702 26.0516 40.557 22.6271 56.1973 23.1943C57.4456 21.9487 58.0973 20.5082 58.1543 18.7852C58.2115 17.0531 57.6682 15.0319 56.5186 12.6348V12.6338C56.2769 12.2663 56.4045 11.7887 56.6377 11.4414ZM16.6064 49.7041C15.3672 49.7041 14.3537 50.711 14.3535 51.9404V84.4092C14.3535 85.6388 15.3671 86.6455 16.6064 86.6455H83.3936C84.633 86.6455 85.6465 85.6388 85.6465 84.4092V51.9404C85.6463 50.711 84.6328 49.7041 83.3936 49.7041H16.6064ZM23.4004 35.9854C22.161 35.9854 21.1465 36.9921 21.1465 38.2217V47.3174H78.9678V38.2217C78.9677 36.9921 77.9542 35.9854 76.7148 35.9854H23.4004ZM59.6377 13.8301C60.5336 16.1999 60.8138 18.3226 60.4707 20.2246C60.1231 22.1511 59.1376 23.8457 57.5195 25.3379C57.4015 25.455 57.282 25.5452 57.1455 25.6055C57.0086 25.6659 56.8572 25.6963 56.6787 25.6963H56.6768C42.7003 25.1276 33.0724 27.7297 27.4336 33.5986H74.9316C74.2947 28.2004 72.7161 23.8555 70.1699 20.5605C67.6328 17.2775 64.132 15.0342 59.6377 13.8301Z" fill="#0066FF" stroke="#0066FF" stroke-width="0.1"/>
<path d="M79.8516 53.9326C80.5712 53.9326 81.0498 54.5318 81.0498 55.1299V80.835C81.0498 81.1905 80.9312 81.4907 80.7197 81.7021C80.5082 81.9136 80.2074 82.0322 79.8516 82.0322H20.1484C19.7926 82.0322 19.4918 81.9136 19.2803 81.7021C19.0688 81.4907 18.9502 81.1905 18.9502 80.835V55.1299C18.9502 54.7743 19.0688 54.4741 19.2803 54.2627C19.4918 54.0512 19.7926 53.9326 20.1484 53.9326H79.8516ZM21.3467 79.6377H78.6533V56.3271H21.3467V79.6377Z" fill="#0066FF" stroke="#0066FF" stroke-width="0.1"/>
<path d="M50 59.9326C50.4425 59.9326 50.8947 60.1356 51.0781 60.5537L53.2471 64.8262L58.0449 65.502L58.0498 65.5029C58.5186 65.6183 58.8847 65.8537 59.0059 66.3311H59.0049C59.1249 66.6914 59.0015 67.1611 58.6475 67.5098L55.2217 70.8809L56.25 75.6045H56.249C56.3691 76.08 56.1286 76.5522 55.7695 76.7881L55.7637 76.791C55.5369 76.9027 55.2962 77.0224 55.0527 77.0225C54.9389 77.0225 54.8204 77.0225 54.7158 77.0078C54.6163 76.9938 54.5216 76.9644 54.4531 76.9023L50.1143 74.6533L45.7744 76.9033L45.7734 76.9043C45.2939 77.1404 44.8155 77.0207 44.4609 76.7881C44.1014 76.5521 43.8596 76.0786 43.9805 75.6025L44.7783 70.8818L41.3525 67.5098H41.3516C40.9905 67.2665 40.8771 66.7928 40.9941 66.3311C41.1153 65.8537 41.4814 65.6183 41.9502 65.5029L41.9551 65.502L46.752 64.8262L48.9219 60.5537C49.1053 60.1356 49.5575 59.9326 50 59.9326ZM48.667 66.4775L48.6631 66.4854L48.6572 66.4922C48.5428 66.6048 48.3959 66.7486 48.2344 66.8643C48.0755 66.978 47.8954 67.0682 47.71 67.0703L44.7119 67.5078L46.9336 69.5859L46.9346 69.5869C47.0545 69.705 47.1728 69.8804 47.2471 70.0703C47.3201 70.2574 47.3515 70.465 47.292 70.6484L47.293 70.6494L46.7373 73.5996L49.4023 72.1787L49.4131 72.1729H49.4258C49.5318 72.1729 49.6112 72.1474 49.6973 72.1191C49.7834 72.0909 49.8764 72.0596 50 72.0596C50.1138 72.0596 50.2324 72.0595 50.3369 72.0742C50.4357 72.0881 50.5293 72.1177 50.5977 72.1787L53.2617 73.5996L52.707 70.6494L52.7051 70.6396H52.7061C52.7061 70.4652 52.7352 70.2625 52.7939 70.0742C52.8526 69.8864 52.9426 69.708 53.0654 69.5869L53.0664 69.5859L55.2871 67.5078L52.2891 67.0713V67.0703C51.8194 67.0678 51.4572 66.8361 51.333 66.4766V66.4775L50 63.7432L48.667 66.4775Z" fill="#0066FF" stroke="#0066FF" stroke-width="0.1"/>
</svg>
