<svg width="100" height="100" viewBox="0 0 100 100" fill="none" xmlns="http://www.w3.org/2000/svg">
<path d="M92.6658 48.9334H54.3991C53.8658 48.9334 53.4658 49.2 53.1991 49.6C52.9324 50 52.9324 50.5334 53.1991 50.9334C54.3991 52.8 55.0658 55.0667 55.0658 57.4667C55.0658 63.8667 49.8658 69.2 43.3324 69.2C37.0658 69.2 31.5991 63.8667 31.5991 57.4667C31.5991 54.8 32.6658 52.4 33.5991 50.8C33.8658 50.4 33.8658 49.8667 33.5991 49.4667C33.3324 49.0667 32.9324 48.8 32.3991 48.8H7.06576C6.26576 48.8 5.73242 49.3334 5.73242 50.1334C5.73242 50.9334 6.26576 51.4667 7.06576 51.4667H30.2658C29.5991 53.2 28.9324 55.2 28.9324 57.4667C28.9324 65.2 35.4658 71.8667 43.3324 71.8667C51.1991 71.8667 57.7324 65.4667 57.7324 57.4667C57.7324 55.3334 57.3324 53.3334 56.5324 51.4667H92.5324C93.3324 51.4667 93.8658 50.9334 93.8658 50.1334C93.8658 49.3334 93.4658 48.9334 92.6658 48.9334ZM51.8658 39.3334C51.4658 40 51.5991 40.8 52.2658 41.2C52.5324 41.3334 52.7991 41.4667 53.0658 41.4667C53.4658 41.4667 53.8658 41.2 54.1324 40.9334C57.3324 36.1334 62.3991 32.6667 69.1991 30.8C69.8658 30.6667 70.2658 29.8667 70.1324 29.2C69.9991 28.5334 69.3324 28 68.6658 28.1334C58.2658 29.4667 50.7991 33.3334 46.3991 39.3334C45.9991 39.8667 46.1324 40.8 46.6658 41.2C47.1991 41.6 48.1324 41.4667 48.5324 40.9334C50.5324 38.2667 53.1991 36.1334 56.3991 34.4C54.5324 35.8667 53.0658 37.4667 51.8658 39.3334Z" fill="#0066FF"/>
<path d="M42.8 45.6002C42.1333 45.3336 41.3333 45.6002 41.0667 46.2669C40.2667 48.0002 39.7333 50.0002 39.3333 52.1336C37.3333 53.3336 36 55.6002 36 58.1336C36 62.0002 39.2 65.2002 43.0667 65.2002C46.9333 65.2002 50.1333 62.0002 50.1333 58.1336C50.1333 56.0002 49.2 54.1336 47.7333 52.9336C47.8667 51.4669 48.2667 49.6002 49.2 47.3336C49.4667 46.6669 49.2 45.8669 48.5333 45.6002C47.8667 45.3336 47.0667 45.6002 46.8 46.2669C46 48.2669 45.6 50.0002 45.3333 51.4669C44.6667 51.2002 43.8667 51.0669 43.0667 51.0669C42.8 51.0669 42.5333 51.0669 42.2667 51.2002C42.5333 49.8669 42.9333 48.6669 43.4667 47.4669C43.8667 46.6669 43.4667 45.8669 42.8 45.6002ZM47.6 58.1336C47.6 60.5336 45.6 62.5336 43.2 62.5336C40.8 62.5336 38.6667 60.5336 38.6667 58.1336C38.6667 55.7336 40.6667 53.7336 43.0667 53.7336C45.4667 53.7336 47.6 55.7336 47.6 58.1336Z" fill="#0066FF"/>
</svg>
