<svg width="100" height="100" viewBox="0 0 100 100" fill="none" xmlns="http://www.w3.org/2000/svg">
<path d="M50 11.9502C70.9852 11.9502 88.0498 29.0148 88.0498 50C88.0498 70.8699 70.9853 88.0498 50 88.0498C29.0148 88.0498 11.9502 70.9852 11.9502 50C11.9502 29.1301 29.0147 11.9502 50 11.9502ZM51.2012 18.2178C51.2012 18.5746 51.0823 18.8767 50.8701 19.0889C50.658 19.3008 50.3567 19.4199 50 19.4199C49.6433 19.4199 49.342 19.3008 49.1299 19.0889C48.9177 18.8767 48.7988 18.5746 48.7988 18.2178V14.3545C43.2024 14.5907 37.9472 16.0747 33.3721 18.3545L35.3037 21.7637L35.3076 21.7695H35.3066C35.5433 22.3612 35.4286 23.0818 34.8262 23.4434L34.8184 23.4473V23.4463C34.2636 23.6681 33.5959 23.5806 33.2168 23.0723L33.1445 22.9648L31.2129 19.6689C26.533 22.5325 22.6488 26.5308 19.7852 31.0986L23.0801 33.0293V33.0303C23.6756 33.3876 23.9195 34.1078 23.5576 34.7109C23.2002 35.3062 22.4799 35.5502 21.877 35.1885V35.1875L18.4697 33.2568C16.0759 37.9459 14.5917 43.2017 14.3555 48.7988H18.2178C18.5746 48.7988 18.8767 48.9177 19.0889 49.1299C19.3008 49.342 19.4199 49.6433 19.4199 50C19.4199 50.3567 19.3008 50.658 19.0889 50.8701C18.8767 51.0823 18.5746 51.2012 18.2178 51.2012H14.3555C14.5917 56.7973 16.0749 62.052 18.3545 66.627L21.7637 64.6963L21.7695 64.6924C22.3243 64.4706 22.992 64.559 23.3711 65.0674L23.4434 65.1738L23.4473 65.1816H23.4463C23.6681 65.7364 23.5806 66.4041 23.0723 66.7832L22.9648 66.8555L19.6689 68.7861C22.5325 73.4662 26.5307 77.3501 31.0986 80.2139L33.0293 76.9199H33.0303C33.3876 76.3244 34.1078 76.0805 34.7109 76.4424C35.3062 76.7998 35.5502 77.5201 35.1885 78.123L35.1875 78.1221L33.2568 81.5293C37.946 83.9233 43.2015 85.4083 48.7988 85.6445V81.8975C48.7988 81.5406 48.9177 81.2385 49.1299 81.0264C49.342 80.8144 49.6433 80.6953 50 80.6953C50.3567 80.6953 50.658 80.8144 50.8701 81.0264C51.0823 81.2385 51.2012 81.5406 51.2012 81.8975V85.7588C56.7985 85.5225 62.0535 84.0376 66.7422 81.5303L64.8115 78.1221L64.8076 78.1152V78.1143C64.5717 77.5229 64.6874 76.8037 65.2891 76.4424L65.2959 76.4375L65.2969 76.4385C65.8886 76.2019 66.6083 76.3175 66.9697 76.9199H66.9707L68.9004 80.2139C73.4666 77.3509 77.3506 73.4683 80.2139 69.0156L76.9199 67.0859V67.085C76.3243 66.7276 76.0805 66.0074 76.4424 65.4043C76.7995 64.8095 77.5185 64.5654 78.1211 64.9258L81.5293 66.8574C83.9231 62.1684 85.4083 56.9134 85.6445 51.3164H82.0117C81.6551 51.3163 81.3537 51.1974 81.1416 50.9854C80.9296 50.7732 80.8106 50.4719 80.8105 50.1152C80.8105 49.7586 80.9296 49.4573 81.1416 49.2451C81.3537 49.033 81.6551 48.9142 82.0117 48.9141H85.874C85.6378 43.3165 84.1531 38.061 81.6455 33.3721L78.2363 35.3037L78.2305 35.3076V35.3066C77.6388 35.5433 76.9182 35.4286 76.5566 34.8262L76.5527 34.8184V34.8174C76.3167 34.2259 76.4331 33.5058 77.0352 33.1445L80.3301 31.2129C77.4664 26.533 73.4684 22.6487 68.9004 19.7852L66.9707 23.0801H66.9697C66.6124 23.6756 65.8922 23.9195 65.2891 23.5576C64.6938 23.2002 64.4498 22.4799 64.8115 21.877L66.7422 18.4697C62.0533 16.0761 56.798 14.5907 51.2012 14.3545V18.2178Z" fill="#0066FF" stroke="#0066FF" stroke-width="0.1"/>
<path d="M50.0908 22.9502C50.4431 22.9502 50.7407 23.0682 50.9502 23.2783C51.1596 23.4884 51.2773 23.7865 51.2773 24.1396V45.9844C52.5166 46.3372 53.6384 47.3528 53.9922 48.707H69.8633C70.4559 48.707 71.0498 49.183 71.0498 49.8975C71.0497 50.2505 70.9321 50.5488 70.7227 50.7588C70.5132 50.9688 70.2155 51.0869 69.8633 51.0869H53.9912C53.5177 52.7989 51.9185 54.0498 50.0908 54.0498C47.7905 54.0498 45.9504 52.2041 45.9502 49.8975C45.9502 48.0646 47.1971 46.4593 48.9043 45.9844V24.1396C48.9043 23.7866 49.0221 23.4884 49.2314 23.2783C49.4409 23.0682 49.7385 22.9502 50.0908 22.9502ZM50.0908 48.123C49.0959 48.1231 48.3223 48.8992 48.3223 49.8975C48.3225 50.8955 49.096 51.6709 50.0908 51.6709C51.0857 51.6709 51.8592 50.8955 51.8594 49.8975C51.8594 48.8992 51.0858 48.123 50.0908 48.123Z" fill="#0066FF" stroke="#0066FF" stroke-width="0.1"/>
</svg>
