<svg display="none" xmlns="http://www.w3.org/2000/svg">

    <symbol viewBox="0 0 125 55" id="link-developer">
        <path
            d="M33.218 13V3.102H36.648C37.376 3.102 38.0013 3.22333 38.524 3.466C39.0467 3.69933 39.4433 4.05867 39.714 4.544C39.994 5.02933 40.134 5.64533 40.134 6.392C40.134 7.12 39.9707 7.736 39.644 8.24C39.3267 8.73467 38.888 9.108 38.328 9.36C37.768 9.612 37.124 9.738 36.396 9.738H34.436V13H33.218ZM34.436 8.632H36.34C37.096 8.632 37.7073 8.45467 38.174 8.1C38.65 7.736 38.888 7.148 38.888 6.336C38.888 5.62667 38.6967 5.09467 38.314 4.74C37.9313 4.38533 37.3573 4.208 36.592 4.208H34.436V8.632ZM44.4773 13.084C44.1413 13.084 43.8146 13.042 43.4973 12.958C43.1893 12.8647 42.9093 12.7293 42.6573 12.552C42.4146 12.3653 42.2186 12.1367 42.0693 11.866C41.9293 11.586 41.8593 11.264 41.8593 10.9C41.8593 10.48 41.9339 10.1253 42.0833 9.836C42.2419 9.54667 42.4519 9.318 42.7133 9.15C42.9746 8.982 43.2779 8.86067 43.6233 8.786C43.9686 8.71133 44.3279 8.674 44.7013 8.674H46.8713C46.8713 8.254 46.8106 7.89 46.6893 7.582C46.5773 7.274 46.3906 7.036 46.1293 6.868C45.8679 6.69067 45.5226 6.602 45.0933 6.602C44.8319 6.602 44.5893 6.63 44.3653 6.686C44.1413 6.742 43.9499 6.83067 43.7913 6.952C43.6326 7.07333 43.5159 7.23667 43.4413 7.442H42.1673C42.2326 7.106 42.3586 6.82133 42.5453 6.588C42.7413 6.34533 42.9746 6.14933 43.2453 6C43.5253 5.84133 43.8239 5.72467 44.1413 5.65C44.4586 5.57533 44.7759 5.538 45.0933 5.538C45.8026 5.538 46.3719 5.68267 46.8013 5.972C47.2306 6.252 47.5433 6.65333 47.7393 7.176C47.9353 7.68933 48.0333 8.30067 48.0333 9.01V13H47.0393L46.9693 12.062C46.7639 12.342 46.5166 12.5567 46.2273 12.706C45.9379 12.8553 45.6393 12.9533 45.3313 13C45.0326 13.056 44.7479 13.084 44.4773 13.084ZM44.5893 12.034C45.0559 12.034 45.4573 11.9593 45.7933 11.81C46.1386 11.6513 46.4046 11.4227 46.5913 11.124C46.7779 10.8253 46.8713 10.4613 46.8713 10.032V9.668H45.5693C45.2613 9.668 44.9579 9.67267 44.6593 9.682C44.3606 9.69133 44.0899 9.72867 43.8473 9.794C43.6046 9.85933 43.4086 9.97133 43.2593 10.13C43.1193 10.2887 43.0493 10.5173 43.0493 10.816C43.0493 11.096 43.1193 11.3247 43.2593 11.502C43.4086 11.6793 43.5999 11.8147 43.8333 11.908C44.0759 11.992 44.3279 12.034 44.5893 12.034ZM53.1109 13.084C52.7562 13.084 52.4016 13.0513 52.0469 12.986C51.6922 12.9207 51.3609 12.8133 51.0529 12.664C50.7542 12.5053 50.5116 12.2953 50.3249 12.034C50.1382 11.7633 50.0356 11.4273 50.0169 11.026H51.1789C51.2256 11.278 51.3609 11.4787 51.5849 11.628C51.8089 11.7773 52.0609 11.8847 52.3409 11.95C52.6302 12.006 52.8869 12.034 53.1109 12.034C53.3722 12.034 53.6382 12.006 53.9089 11.95C54.1889 11.894 54.4222 11.782 54.6089 11.614C54.8049 11.446 54.9029 11.1987 54.9029 10.872C54.9029 10.5547 54.8236 10.3213 54.6649 10.172C54.5156 10.0227 54.3149 9.92467 54.0629 9.878C53.8202 9.83133 53.5542 9.808 53.2649 9.808H51.9489V8.758H53.0269C53.2042 8.758 53.3862 8.744 53.5729 8.716C53.7596 8.67867 53.9322 8.62267 54.0909 8.548C54.2496 8.464 54.3756 8.34733 54.4689 8.198C54.5716 8.04867 54.6229 7.85733 54.6229 7.624C54.6229 7.36267 54.5482 7.15733 54.3989 7.008C54.2496 6.85867 54.0582 6.756 53.8249 6.7C53.5916 6.63467 53.3536 6.602 53.1109 6.602C52.8869 6.602 52.6489 6.62533 52.3969 6.672C52.1542 6.71867 51.9442 6.812 51.7669 6.952C51.5896 7.08267 51.4822 7.27867 51.4449 7.54H50.2689C50.2876 7.036 50.4416 6.63933 50.7309 6.35C51.0202 6.06067 51.3796 5.85533 51.8089 5.734C52.2382 5.60333 52.6676 5.538 53.0969 5.538C53.4236 5.538 53.7456 5.57067 54.0629 5.636C54.3802 5.70133 54.6696 5.81333 54.9309 5.972C55.1922 6.12133 55.3976 6.322 55.5469 6.574C55.7056 6.826 55.7849 7.13867 55.7849 7.512C55.7849 7.848 55.7056 8.14667 55.5469 8.408C55.3882 8.66933 55.1456 8.87933 54.8189 9.038C55.2949 9.18733 55.6262 9.42067 55.8129 9.738C55.9996 10.0553 56.0929 10.4333 56.0929 10.872C56.0929 11.264 56.0089 11.6 55.8409 11.88C55.6729 12.1507 55.4442 12.3793 55.1549 12.566C54.8749 12.7433 54.5576 12.874 54.2029 12.958C53.8482 13.042 53.4842 13.084 53.1109 13.084ZM58.1883 15.66V5.622H59.3223L59.3783 6.756C59.6303 6.35467 59.971 6.05133 60.4003 5.846C60.839 5.64067 61.3103 5.538 61.8143 5.538C62.561 5.538 63.1723 5.706 63.6483 6.042C64.1243 6.36867 64.4743 6.81667 64.6983 7.386C64.9316 7.95533 65.0483 8.59933 65.0483 9.318C65.0483 10.0367 64.9316 10.6807 64.6983 11.25C64.465 11.8193 64.1056 12.2673 63.6203 12.594C63.135 12.9207 62.5143 13.084 61.7583 13.084C61.385 13.084 61.049 13.0467 60.7503 12.972C60.4516 12.888 60.1903 12.7713 59.9663 12.622C59.7423 12.4727 59.5463 12.3047 59.3783 12.118V15.66H58.1883ZM61.6603 12.034C62.2016 12.034 62.631 11.9127 62.9483 11.67C63.2656 11.418 63.4943 11.0867 63.6343 10.676C63.7836 10.2653 63.8583 9.81267 63.8583 9.318C63.8583 8.814 63.7836 8.35667 63.6343 7.946C63.4943 7.53533 63.261 7.20867 62.9343 6.966C62.6076 6.72333 62.1736 6.602 61.6323 6.602C61.147 6.602 60.7316 6.728 60.3863 6.98C60.0503 7.22267 59.7936 7.554 59.6163 7.974C59.439 8.38467 59.3503 8.83733 59.3503 9.332C59.3503 9.84533 59.4343 10.3073 59.6023 10.718C59.7703 11.1287 60.027 11.4507 60.3723 11.684C60.7176 11.9173 61.147 12.034 61.6603 12.034ZM69.5088 13.084C69.1728 13.084 68.8462 13.042 68.5288 12.958C68.2208 12.8647 67.9408 12.7293 67.6888 12.552C67.4462 12.3653 67.2502 12.1367 67.1008 11.866C66.9608 11.586 66.8908 11.264 66.8908 10.9C66.8908 10.48 66.9655 10.1253 67.1148 9.836C67.2735 9.54667 67.4835 9.318 67.7448 9.15C68.0062 8.982 68.3095 8.86067 68.6548 8.786C69.0002 8.71133 69.3595 8.674 69.7328 8.674H71.9028C71.9028 8.254 71.8422 7.89 71.7208 7.582C71.6088 7.274 71.4222 7.036 71.1608 6.868C70.8995 6.69067 70.5542 6.602 70.1248 6.602C69.8635 6.602 69.6208 6.63 69.3968 6.686C69.1728 6.742 68.9815 6.83067 68.8228 6.952C68.6642 7.07333 68.5475 7.23667 68.4728 7.442H67.1988C67.2642 7.106 67.3902 6.82133 67.5768 6.588C67.7728 6.34533 68.0062 6.14933 68.2768 6C68.5568 5.84133 68.8555 5.72467 69.1728 5.65C69.4902 5.57533 69.8075 5.538 70.1248 5.538C70.8342 5.538 71.4035 5.68267 71.8328 5.972C72.2622 6.252 72.5748 6.65333 72.7708 7.176C72.9668 7.68933 73.0648 8.30067 73.0648 9.01V13H72.0708L72.0008 12.062C71.7955 12.342 71.5482 12.5567 71.2588 12.706C70.9695 12.8553 70.6708 12.9533 70.3628 13C70.0642 13.056 69.7795 13.084 69.5088 13.084ZM69.6208 12.034C70.0875 12.034 70.4888 11.9593 70.8248 11.81C71.1702 11.6513 71.4362 11.4227 71.6228 11.124C71.8095 10.8253 71.9028 10.4613 71.9028 10.032V9.668H70.6008C70.2928 9.668 69.9895 9.67267 69.6908 9.682C69.3922 9.69133 69.1215 9.72867 68.8788 9.794C68.6362 9.85933 68.4402 9.97133 68.2908 10.13C68.1508 10.2887 68.0808 10.5173 68.0808 10.816C68.0808 11.096 68.1508 11.3247 68.2908 11.502C68.4402 11.6793 68.6315 11.8147 68.8648 11.908C69.1075 11.992 69.3595 12.034 69.6208 12.034ZM78.5765 13.084C78.1098 13.084 77.6945 13.0187 77.3305 12.888C76.9665 12.748 76.6538 12.5567 76.3925 12.314C76.1311 12.062 75.9165 11.768 75.7485 11.432C75.5805 11.0867 75.4545 10.7133 75.3705 10.312C75.2865 9.91067 75.2445 9.486 75.2445 9.038C75.2445 8.31933 75.2585 7.652 75.2865 7.036C75.3238 6.41067 75.4265 5.85533 75.5945 5.37C75.7625 4.87533 76.0471 4.46467 76.4485 4.138C76.8498 3.81133 77.4145 3.58267 78.1425 3.452C78.5158 3.38667 78.8845 3.33067 79.2485 3.284C79.6125 3.23733 79.9811 3.19067 80.3545 3.144C80.4758 3.12533 80.6018 3.10667 80.7325 3.088C80.8631 3.06933 80.9985 3.046 81.1385 3.018C81.2878 2.99 81.4278 2.96667 81.5585 2.948V4.04C81.4558 4.07733 81.3438 4.11 81.2225 4.138C81.1105 4.15667 80.9891 4.17533 80.8585 4.194C80.7371 4.21267 80.6111 4.22667 80.4805 4.236C80.3591 4.24533 80.2378 4.25933 80.1165 4.278C79.9951 4.28733 79.8785 4.30133 79.7665 4.32C79.4398 4.35733 79.0945 4.39467 78.7305 4.432C78.3665 4.46 78.0211 4.53467 77.6945 4.656C77.3771 4.768 77.1065 4.98733 76.8825 5.314C76.7705 5.482 76.6725 5.68267 76.5885 5.916C76.5138 6.14933 76.4578 6.38733 76.4205 6.63C76.3925 6.86333 76.3738 7.08733 76.3645 7.302C76.5511 7.04067 76.7798 6.83067 77.0505 6.672C77.3211 6.504 77.6105 6.38267 77.9185 6.308C78.2265 6.224 78.5205 6.182 78.8005 6.182C79.4725 6.182 80.0418 6.322 80.5085 6.602C80.9751 6.87267 81.3298 7.26 81.5725 7.764C81.8151 8.268 81.9365 8.856 81.9365 9.528C81.9365 10.2 81.8058 10.8067 81.5445 11.348C81.2831 11.88 80.9005 12.3047 80.3965 12.622C79.9018 12.93 79.2951 13.084 78.5765 13.084ZM78.6045 12.034C79.0711 12.034 79.4631 11.922 79.7805 11.698C80.0978 11.474 80.3358 11.1753 80.4945 10.802C80.6625 10.4287 80.7465 10.018 80.7465 9.57C80.7465 9.13133 80.6625 8.73933 80.4945 8.394C80.3358 8.03933 80.0978 7.75933 79.7805 7.554C79.4725 7.34867 79.0898 7.246 78.6325 7.246C78.1845 7.246 77.7971 7.35333 77.4705 7.568C77.1531 7.78267 76.9058 8.072 76.7285 8.436C76.5605 8.79067 76.4765 9.178 76.4765 9.598C76.4765 10.0273 76.5558 10.4287 76.7145 10.802C76.8731 11.1753 77.1065 11.474 77.4145 11.698C77.7318 11.922 78.1285 12.034 78.6045 12.034ZM87.3149 13.084C86.5402 13.084 85.8915 12.9253 85.3689 12.608C84.8462 12.2813 84.4542 11.8333 84.1929 11.264C83.9409 10.6947 83.8149 10.046 83.8149 9.318C83.8149 8.58067 83.9409 7.932 84.1929 7.372C84.4542 6.80267 84.8462 6.35467 85.3689 6.028C85.8915 5.70133 86.5495 5.538 87.3429 5.538C88.1175 5.538 88.7615 5.70133 89.2749 6.028C89.7975 6.35467 90.1849 6.80267 90.4369 7.372C90.6982 7.932 90.8289 8.58067 90.8289 9.318C90.8289 10.046 90.6982 10.6947 90.4369 11.264C90.1755 11.8333 89.7835 12.2813 89.2609 12.608C88.7475 12.9253 88.0989 13.084 87.3149 13.084ZM87.3149 12.034C87.8562 12.034 88.2949 11.9127 88.6309 11.67C88.9762 11.4273 89.2282 11.1007 89.3869 10.69C89.5549 10.2793 89.6389 9.822 89.6389 9.318C89.6389 8.814 89.5549 8.35667 89.3869 7.946C89.2282 7.53533 88.9762 7.20867 88.6309 6.966C88.2949 6.72333 87.8562 6.602 87.3149 6.602C86.7829 6.602 86.3442 6.72333 85.9989 6.966C85.6629 7.20867 85.4109 7.53533 85.2429 7.946C85.0842 8.35667 85.0049 8.814 85.0049 9.318C85.0049 9.822 85.0842 10.2793 85.2429 10.69C85.4109 11.1007 85.6629 11.4273 85.9989 11.67C86.3442 11.9127 86.7829 12.034 87.3149 12.034ZM94.703 13V6.672H92.169V5.622H98.427V6.672H95.893V13H94.703ZM102.415 13.084C102.079 13.084 101.752 13.042 101.435 12.958C101.127 12.8647 100.847 12.7293 100.595 12.552C100.352 12.3653 100.156 12.1367 100.007 11.866C99.8669 11.586 99.7969 11.264 99.7969 10.9C99.7969 10.48 99.8715 10.1253 100.021 9.836C100.18 9.54667 100.39 9.318 100.651 9.15C100.912 8.982 101.216 8.86067 101.561 8.786C101.906 8.71133 102.266 8.674 102.639 8.674H104.809C104.809 8.254 104.748 7.89 104.627 7.582C104.515 7.274 104.328 7.036 104.067 6.868C103.806 6.69067 103.46 6.602 103.031 6.602C102.77 6.602 102.527 6.63 102.303 6.686C102.079 6.742 101.888 6.83067 101.729 6.952C101.57 7.07333 101.454 7.23667 101.379 7.442H100.105C100.17 7.106 100.296 6.82133 100.483 6.588C100.679 6.34533 100.912 6.14933 101.183 6C101.463 5.84133 101.762 5.72467 102.079 5.65C102.396 5.57533 102.714 5.538 103.031 5.538C103.74 5.538 104.31 5.68267 104.739 5.972C105.168 6.252 105.481 6.65333 105.677 7.176C105.873 7.68933 105.971 8.30067 105.971 9.01V13H104.977L104.907 12.062C104.702 12.342 104.454 12.5567 104.165 12.706C103.876 12.8553 103.577 12.9533 103.269 13C102.97 13.056 102.686 13.084 102.415 13.084ZM102.527 12.034C102.994 12.034 103.395 11.9593 103.731 11.81C104.076 11.6513 104.342 11.4227 104.529 11.124C104.716 10.8253 104.809 10.4613 104.809 10.032V9.668H103.507C103.199 9.668 102.896 9.67267 102.597 9.682C102.298 9.69133 102.028 9.72867 101.785 9.794C101.542 9.85933 101.346 9.97133 101.197 10.13C101.057 10.2887 100.987 10.5173 100.987 10.816C100.987 11.096 101.057 11.3247 101.197 11.502C101.346 11.6793 101.538 11.8147 101.771 11.908C102.014 11.992 102.266 12.034 102.527 12.034ZM108.374 13V5.622H109.564V8.856H113.26V5.622H114.45V13H113.26V9.906H109.564V13H108.374ZM120.112 13.084C119.337 13.084 118.688 12.9253 118.166 12.608C117.643 12.2813 117.251 11.8333 116.99 11.264C116.738 10.6947 116.612 10.046 116.612 9.318C116.612 8.58067 116.738 7.932 116.99 7.372C117.251 6.80267 117.643 6.35467 118.166 6.028C118.688 5.70133 119.346 5.538 120.14 5.538C120.914 5.538 121.558 5.70133 122.072 6.028C122.594 6.35467 122.982 6.80267 123.234 7.372C123.495 7.932 123.626 8.58067 123.626 9.318C123.626 10.046 123.495 10.6947 123.234 11.264C122.972 11.8333 122.58 12.2813 122.058 12.608C121.544 12.9253 120.896 13.084 120.112 13.084ZM120.112 12.034C120.653 12.034 121.092 11.9127 121.428 11.67C121.773 11.4273 122.025 11.1007 122.184 10.69C122.352 10.2793 122.436 9.822 122.436 9.318C122.436 8.814 122.352 8.35667 122.184 7.946C122.025 7.53533 121.773 7.20867 121.428 6.966C121.092 6.72333 120.653 6.602 120.112 6.602C119.58 6.602 119.141 6.72333 118.796 6.966C118.46 7.20867 118.208 7.53533 118.04 7.946C117.881 8.35667 117.802 8.814 117.802 9.318C117.802 9.822 117.881 10.2793 118.04 10.69C118.208 11.1007 118.46 11.4273 118.796 11.67C119.141 11.9127 119.58 12.034 120.112 12.034Z" />
        <g>
            <path d="M124.848 43.9632H114.598V42.2549H124.848V43.9632Z" />
            <path
                d="M124.849 33.752V35.4449H123.936C124.643 36.0501 125.001 36.8545 125.001 37.8657C125.001 38.6087 124.795 39.2369 124.392 39.7501C123.981 40.2634 123.418 40.5238 122.688 40.5238C121.888 40.5238 121.287 40.2481 120.876 39.6889C120.465 39.1296 120.26 38.4019 120.26 37.498C120.26 36.7702 120.366 36.0807 120.572 35.4373H120.435C119.918 35.4373 119.529 35.5981 119.255 35.9122C118.982 36.2263 118.845 36.6859 118.845 37.2758C118.845 37.9576 118.997 38.6624 119.309 39.4131L117.947 39.8804C117.536 38.9534 117.33 38.0112 117.33 37.0383C117.33 35.9582 117.604 35.1385 118.144 34.5869C118.685 34.0354 119.461 33.7596 120.458 33.7596H124.856L124.849 33.752ZM122.17 35.4066H121.751C121.554 35.9122 121.455 36.4868 121.455 37.1149C121.455 37.6512 121.561 38.0725 121.767 38.3712C121.972 38.67 122.261 38.8232 122.634 38.8232C122.969 38.8232 123.236 38.6853 123.433 38.4096C123.631 38.1338 123.73 37.789 123.73 37.3754C123.73 36.8008 123.586 36.3259 123.296 35.9582C123.007 35.5828 122.634 35.399 122.17 35.399V35.4066Z" />
            <path
                d="M125 27.4779C125 28.5044 124.566 29.347 123.691 30.0058H124.84V31.7141H114.59V30.0058H118.661C117.733 29.347 117.269 28.5044 117.269 27.4779C117.269 26.5356 117.619 25.7236 118.319 25.0342C119.019 24.3447 119.962 24 121.15 24C122.337 24 123.258 24.3447 123.95 25.0342C124.65 25.7236 125 26.5356 125 27.4779ZM123.524 27.8762C123.524 27.271 123.303 26.7655 122.862 26.3594C122.42 25.9458 121.842 25.7466 121.119 25.7466C120.396 25.7466 119.848 25.9534 119.407 26.3671C118.966 26.7808 118.745 27.2864 118.745 27.8762C118.745 28.4661 118.973 28.9793 119.422 29.4083C119.871 29.8373 120.449 30.0518 121.15 30.0518C121.85 30.0518 122.413 29.8373 122.854 29.4083C123.296 28.9793 123.524 28.4661 123.524 27.8762Z" />
            <path
                d="M0 53.9293V49.2104H0.821868V49.8156C1.14148 49.3636 1.54481 49.1338 2.03946 49.1338C2.49605 49.1338 2.88415 49.3023 3.21899 49.6471C3.55382 49.9841 3.71362 50.4515 3.71362 51.0259C3.71362 51.6005 3.54621 52.0525 3.21899 52.3972C2.89176 52.7342 2.49605 52.9105 2.03946 52.9105C1.54481 52.9105 1.14148 52.6959 0.821868 52.2746V53.937H0V53.9293ZM1.8492 52.1904C2.13837 52.1904 2.3819 52.0832 2.57975 51.8685C2.77761 51.6541 2.87654 51.3707 2.87654 51.0182C2.87654 50.6659 2.77761 50.3979 2.57975 50.1832C2.3819 49.9688 2.13837 49.8616 1.8492 49.8616C1.56003 49.8616 1.31651 49.9688 1.11104 50.1909C0.905576 50.4132 0.799038 50.6889 0.799038 51.0335C0.799038 51.3784 0.905576 51.6464 1.11104 51.8685C1.31651 52.0832 1.56764 52.198 1.8492 52.198V52.1904Z" />
            <path
                d="M8.26484 52.8269H7.45058V52.3825C7.1614 52.7273 6.7733 52.9035 6.28627 52.9035C5.92861 52.9035 5.62421 52.8039 5.38069 52.6048C5.13718 52.4055 5.00781 52.1297 5.00781 51.7698C5.00781 51.379 5.14479 51.088 5.41113 50.8888C5.67749 50.6895 6.02754 50.5899 6.4689 50.5899C6.81895 50.5899 7.15379 50.6436 7.4658 50.7431V50.6742C7.4658 50.4214 7.3897 50.23 7.2375 50.0998C7.08531 49.9694 6.86462 49.9005 6.58305 49.9005C6.25584 49.9005 5.91339 49.9771 5.55573 50.1304L5.33504 49.4639C5.7764 49.2648 6.23299 49.165 6.70481 49.165C7.2299 49.165 7.61799 49.2954 7.88435 49.5635C8.15069 49.8315 8.28006 50.207 8.28006 50.6972V52.8422L8.26484 52.8269ZM7.4658 51.5168V51.3101C7.22229 51.2105 6.94834 51.1645 6.64394 51.1645C6.3852 51.1645 6.17973 51.2182 6.03515 51.3177C5.89055 51.4173 5.81446 51.5628 5.81446 51.7391C5.81446 51.9 5.88294 52.0302 6.01231 52.1297C6.14169 52.2293 6.3091 52.2753 6.50696 52.2753C6.78091 52.2753 7.00921 52.2063 7.19185 52.0608C7.37448 51.9229 7.45819 51.7391 7.45819 51.5092L7.4658 51.5168Z" />
            <path
                d="M11.1475 52.9105C10.5311 52.9105 10.006 52.7265 9.57227 52.3589L9.96038 51.8073C10.2952 52.0985 10.6757 52.2363 11.0943 52.2363C11.2845 52.2363 11.4443 52.1904 11.5737 52.0985C11.703 52.0066 11.7715 51.8839 11.7715 51.7383C11.7715 51.6005 11.7107 51.4933 11.5813 51.409C11.4519 51.3248 11.2769 51.2865 11.041 51.2865H10.5996V50.6889H11.041C11.2312 50.6889 11.3834 50.6429 11.4976 50.5587C11.6117 50.4744 11.6726 50.3596 11.6726 50.2215C11.6726 50.099 11.6193 49.9994 11.5052 49.9228C11.391 49.8462 11.2541 49.8079 11.079 49.8079C10.6757 49.8079 10.3409 49.9305 10.0593 50.1756L9.69402 49.6548C10.0897 49.3099 10.5768 49.1338 11.1551 49.1338C11.5508 49.1338 11.8705 49.2257 12.1216 49.4095C12.3727 49.5935 12.4945 49.8233 12.4945 50.1066C12.4945 50.4898 12.3042 50.7655 11.9313 50.9263C12.3651 51.0795 12.5858 51.3707 12.5858 51.8073C12.5858 52.1215 12.4488 52.3819 12.1825 52.5963C11.9161 52.8109 11.5661 52.9182 11.1399 52.9182L11.1475 52.9105Z" />
            <path
                d="M14.1309 53.9293V49.2104H14.9527V49.8156C15.2723 49.3636 15.6757 49.1338 16.1703 49.1338C16.6269 49.1338 17.015 49.3023 17.3498 49.6471C17.6847 49.9841 17.8445 50.4515 17.8445 51.0259C17.8445 51.6005 17.6771 52.0525 17.3498 52.3972C17.0226 52.7342 16.6269 52.9105 16.1703 52.9105C15.6757 52.9105 15.2723 52.6959 14.9527 52.2746V53.937H14.1309V53.9293ZM15.9801 52.1904C16.2692 52.1904 16.5127 52.0832 16.7106 51.8685C16.9085 51.6541 17.0074 51.3707 17.0074 51.0182C17.0074 50.6659 16.9085 50.3979 16.7106 50.1832C16.5127 49.9688 16.2692 49.8616 15.9801 49.8616C15.6909 49.8616 15.4474 49.9688 15.2419 50.1909C15.0364 50.4132 14.9299 50.6889 14.9299 51.0335C14.9299 51.3784 15.0364 51.6464 15.2419 51.8685C15.4474 52.0832 15.6985 52.198 15.9801 52.198V52.1904Z" />
            <path
                d="M22.3957 52.8269H21.5814V52.3825C21.2923 52.7273 20.9043 52.9035 20.4171 52.9035C20.0595 52.9035 19.7552 52.8039 19.5117 52.6048C19.268 52.4055 19.1387 52.1297 19.1387 51.7698C19.1387 51.379 19.2756 51.088 19.5421 50.8888C19.8084 50.6895 20.1584 50.5899 20.5999 50.5899C20.9499 50.5899 21.2847 50.6436 21.5966 50.7431V50.6742C21.5966 50.4214 21.5206 50.23 21.3684 50.0998C21.2162 49.9694 20.9956 49.9005 20.714 49.9005C20.3867 49.9005 20.0443 49.9771 19.6867 50.1304L19.466 49.4639C19.9073 49.2648 20.3639 49.165 20.8358 49.165C21.3608 49.165 21.749 49.2954 22.0153 49.5635C22.2816 49.8315 22.411 50.207 22.411 50.6972V52.8422L22.3957 52.8269ZM21.5966 51.5168V51.3101C21.3532 51.2105 21.0793 51.1645 20.7749 51.1645C20.5162 51.1645 20.3106 51.2182 20.166 51.3177C20.0215 51.4173 19.9454 51.5628 19.9454 51.7391C19.9454 51.9 20.0139 52.0302 20.1432 52.1297C20.2725 52.2293 20.4399 52.2753 20.6379 52.2753C20.9119 52.2753 21.1401 52.2063 21.3227 52.0608C21.5053 51.9229 21.589 51.7391 21.589 51.5092L21.5966 51.5168Z" />
            <path
                d="M25.7983 52.9107C25.2201 52.9107 24.7635 52.7268 24.4362 52.3591C24.109 51.9913 23.9492 51.4705 23.9492 50.804C23.9492 50.5896 23.9492 50.3979 23.9644 50.2371C23.972 50.0763 23.9949 49.9001 24.0329 49.7086C24.0634 49.517 24.1166 49.3561 24.1775 49.2106C24.246 49.0728 24.3297 48.9349 24.4286 48.8047C24.5275 48.6743 24.6644 48.5671 24.8244 48.4752C24.9842 48.3833 25.1744 48.322 25.3874 48.2761L27.3509 47.8623L27.4878 48.5288L25.5244 48.9579C25.1972 49.0268 24.9614 49.1494 24.8244 49.3255C24.6797 49.5017 24.6036 49.7239 24.5807 49.9843C24.6873 49.8005 24.8624 49.6397 25.0983 49.5093C25.3342 49.3715 25.6233 49.3102 25.9659 49.3102C26.43 49.3102 26.8333 49.4787 27.1758 49.8235C27.5106 50.1605 27.6856 50.5819 27.6856 51.0721C27.6856 51.5624 27.5106 52.0143 27.153 52.3744C26.7952 52.7344 26.3539 52.9184 25.8135 52.9184L25.7983 52.9107ZM25.8135 52.1906C26.1181 52.1906 26.3691 52.0834 26.5594 51.8688C26.7496 51.6543 26.8485 51.3939 26.8485 51.0797C26.8485 50.7657 26.7496 50.5053 26.5441 50.2907C26.3387 50.0763 26.0952 49.969 25.7983 49.969C25.5016 49.969 25.2505 50.0763 25.0603 50.2907C24.8701 50.5053 24.7711 50.7734 24.7711 51.0874C24.7711 51.4016 24.8701 51.662 25.0679 51.8764C25.2657 52.0911 25.5168 52.1983 25.8059 52.1983L25.8135 52.1906Z" />
            <path
                d="M30.9043 52.9111C30.3563 52.9111 29.9074 52.7273 29.5421 52.3595C29.1767 51.9919 28.9941 51.5475 28.9941 51.019C28.9941 50.4904 29.1767 50.0462 29.5421 49.6784C29.9074 49.3108 30.3639 49.127 30.9119 49.127C31.4597 49.127 31.9088 49.3108 32.274 49.6784C32.6393 50.0462 32.8219 50.4904 32.8219 51.019C32.8219 51.5475 32.6393 51.9842 32.274 52.3519C31.9088 52.7197 31.4445 52.9035 30.8967 52.9035L30.9043 52.9111ZM30.9195 52.191C31.2467 52.191 31.513 52.0761 31.711 51.854C31.9088 51.6319 32.0077 51.356 32.0077 51.0267C32.0077 50.6972 31.9012 50.4291 31.6958 50.1994C31.4902 49.9773 31.2239 49.8622 30.9043 49.8622C30.5847 49.8622 30.3182 49.9773 30.1204 50.1994C29.9226 50.4215 29.8237 50.6972 29.8237 51.0267C29.8237 51.356 29.9302 51.6243 30.1356 51.8464C30.3411 52.0761 30.6075 52.191 30.9195 52.191Z" />
            <path d="M34.9829 52.8267V49.9156H33.8262V49.2031H36.9691V49.9156H35.8124V52.8267H34.9829Z" />
            <path
                d="M38.3008 52.8267V49.2031H39.1151V50.9346L40.6827 49.2031H41.6492L40.2566 50.7276L41.7709 52.8267H40.7968L39.7086 51.3328L39.1227 51.9534V52.8267H38.3084H38.3008Z" />
            <path
                d="M45.9034 52.8269H45.0892V52.3825C44.8001 52.7273 44.4119 52.9035 43.9249 52.9035C43.5671 52.9035 43.2628 52.8039 43.0193 52.6048C42.7758 52.4055 42.6465 52.1297 42.6465 51.7698C42.6465 51.379 42.7834 51.088 43.0497 50.8888C43.316 50.6895 43.6662 50.5899 44.1075 50.5899C44.4575 50.5899 44.7925 50.6436 45.1045 50.7431V50.6742C45.1045 50.4214 45.0284 50.23 44.8762 50.0998C44.7238 49.9694 44.5032 49.9005 44.2217 49.9005C43.8945 49.9005 43.5519 49.9771 43.1943 50.1304L42.9737 49.4639C43.415 49.2648 43.8717 49.165 44.3434 49.165C44.8686 49.165 45.2566 49.2954 45.5229 49.5635C45.7892 49.8315 45.9186 50.207 45.9186 50.6972V52.8422L45.9034 52.8269ZM45.1045 51.5168V51.3101C44.861 51.2105 44.5869 51.1645 44.2825 51.1645C44.0238 51.1645 43.8184 51.2182 43.6738 51.3177C43.5291 51.4173 43.453 51.5628 43.453 51.7391C43.453 51.9 43.5215 52.0302 43.651 52.1297C43.7804 52.2293 43.9478 52.2753 44.1456 52.2753C44.4195 52.2753 44.6478 52.2063 44.8305 52.0608C45.0131 51.9229 45.0968 51.7391 45.0968 51.5092L45.1045 51.5168Z" />
            <path
                d="M51.9524 52.9105C51.4198 52.9105 50.9783 52.7265 50.6283 52.3665C50.2783 52.0066 50.0957 51.5622 50.0957 51.0412V51.0259C50.0957 50.5051 50.2707 50.0607 50.6283 49.6931C50.9859 49.3253 51.4274 49.1338 51.96 49.1338C52.5385 49.1338 53.0178 49.3406 53.3982 49.762L52.8885 50.3134C52.5993 50.0147 52.2948 49.8616 51.9524 49.8616C51.6557 49.8616 51.4122 49.9764 51.2144 50.1985C51.0164 50.4208 50.9174 50.6966 50.9174 51.0106V51.0259C50.9174 51.3554 51.0164 51.6311 51.2218 51.8532C51.4274 52.0755 51.6785 52.1904 51.9981 52.1904C52.3328 52.1904 52.6374 52.0372 52.9341 51.7383L53.4287 52.2287C53.2308 52.4508 53.0178 52.6193 52.7895 52.7342C52.5613 52.8492 52.2796 52.9105 51.9524 52.9105Z" />
            <path
                d="M57.843 52.8269H57.0287V52.3825C56.7396 52.7273 56.3513 52.9035 55.8644 52.9035C55.5068 52.9035 55.2022 52.8039 54.9588 52.6048C54.7153 52.4055 54.5859 52.1297 54.5859 51.7698C54.5859 51.379 54.7229 51.088 54.9892 50.8888C55.2555 50.6895 55.6057 50.5899 56.047 50.5899C56.397 50.5899 56.732 50.6436 57.0439 50.7431V50.6742C57.0439 50.4214 56.9678 50.23 56.8156 50.0998C56.6635 49.9694 56.4426 49.9005 56.1611 49.9005C55.8339 49.9005 55.4916 49.9771 55.1338 50.1304L54.9131 49.4639C55.3546 49.2648 55.8111 49.165 56.2829 49.165C56.808 49.165 57.1961 49.2954 57.4624 49.5635C57.7289 49.8315 57.8582 50.207 57.8582 50.6972V52.8422L57.843 52.8269ZM57.0439 51.5168V51.3101C56.8004 51.2105 56.5265 51.1645 56.222 51.1645C55.9633 51.1645 55.7579 51.2182 55.6133 51.3177C55.4687 51.4173 55.3926 51.5628 55.3926 51.7391C55.3926 51.9 55.4611 52.0302 55.5905 52.1297C55.7198 52.2293 55.8872 52.2753 56.085 52.2753C56.3589 52.2753 56.5874 52.2063 56.77 52.0608C56.9526 51.9229 57.0363 51.7391 57.0363 51.5092L57.0439 51.5168Z" />
            <path
                d="M59.502 52.8266V49.2033H60.3087V51.6317C61.0619 50.5514 61.6328 49.7472 62.0132 49.2033H62.7895V52.8266H61.9904V50.4136L60.2782 52.8266H59.502ZM61.861 48.5291C61.6708 48.6976 61.4349 48.7895 61.1458 48.7895C60.8565 48.7895 60.6206 48.7053 60.4304 48.5291C60.2402 48.353 60.1184 48.1232 60.0728 47.832L60.575 47.7324C60.6739 48.0464 60.8565 48.1998 61.138 48.1998C61.4197 48.1998 61.6099 48.0464 61.7012 47.7324L62.1958 47.832C62.1501 48.1232 62.036 48.3606 61.8458 48.5291H61.861Z" />
            <path d="M65.2778 52.8267V49.9156H64.1211V49.2031H67.264V49.9156H66.1073V52.8267H65.2778Z" />
            <path
                d="M70.1697 52.9111C69.6219 52.9111 69.1728 52.7273 68.8076 52.3595C68.4424 51.9919 68.2598 51.5475 68.2598 51.019C68.2598 50.4904 68.4424 50.0462 68.8076 49.6784C69.1728 49.3108 69.6295 49.127 70.1773 49.127C70.7253 49.127 71.1743 49.3108 71.5397 49.6784C71.9049 50.0462 72.0875 50.4904 72.0875 51.019C72.0875 51.5475 71.9049 51.9842 71.5397 52.3519C71.1743 52.7197 70.7101 52.9035 70.1621 52.9035L70.1697 52.9111ZM70.1849 52.191C70.5123 52.191 70.7786 52.0761 70.9764 51.854C71.1743 51.6319 71.2732 51.356 71.2732 51.0267C71.2732 50.6972 71.1666 50.4291 70.9612 50.1994C70.7558 49.9773 70.4895 49.8622 70.1697 49.8622C69.8502 49.8622 69.5839 49.9773 69.386 50.1994C69.1882 50.4215 69.0891 50.6972 69.0891 51.0267C69.0891 51.356 69.1958 51.6243 69.4013 51.8464C69.6067 52.0761 69.873 52.191 70.1849 52.191Z" />
            <path
                d="M73.6172 52.8267V49.2031H75.4665C75.8241 49.2031 76.1134 49.2876 76.3264 49.4484C76.5395 49.6092 76.646 49.8313 76.646 50.1072C76.646 50.4825 76.4558 50.7659 76.0677 50.9346C76.5623 51.0801 76.8134 51.3788 76.8134 51.8385C76.8134 52.1448 76.6916 52.3823 76.4558 52.5586C76.2199 52.7348 75.8926 52.819 75.4893 52.819H73.6248L73.6172 52.8267ZM74.4239 50.7046H75.2686C75.436 50.7046 75.5654 50.6663 75.6643 50.5821C75.7632 50.4978 75.8089 50.3906 75.8089 50.2604C75.8089 50.1379 75.7632 50.0381 75.6795 49.9615C75.5958 49.8849 75.4589 49.8466 75.2839 49.8466H74.4239V50.7046ZM74.4239 52.1755H75.3599C75.5578 52.1755 75.7099 52.1372 75.8165 52.0453C75.923 51.961 75.9762 51.8461 75.9762 51.7081C75.9762 51.5702 75.923 51.463 75.8089 51.3864C75.6947 51.3098 75.5349 51.2716 75.3219 51.2716H74.4315V52.1755H74.4239Z" />
            <path d="M78.2598 52.826V51.8838H79.1654V52.826H78.2598Z" />
            <path
                d="M83.5564 52.8267V49.2031H84.3708L85.497 50.8808L86.6309 49.2031H87.4452V52.8267H86.6157V50.4136L85.4818 52.0376L84.3555 50.4289V52.8267H83.5488H83.5564Z" />
            <path
                d="M92.1788 52.8269H91.3646V52.3825C91.0753 52.7273 90.6873 52.9035 90.2003 52.9035C89.8425 52.9035 89.5382 52.8039 89.2947 52.6048C89.0512 52.4055 88.9219 52.1297 88.9219 51.7698C88.9219 51.379 89.0588 51.088 89.3251 50.8888C89.5914 50.6895 89.9414 50.5899 90.3829 50.5899C90.7329 50.5899 91.0677 50.6436 91.3798 50.7431V50.6742C91.3798 50.4214 91.3038 50.23 91.1514 50.0998C90.9992 49.9694 90.7786 49.9005 90.4971 49.9005C90.1699 49.9005 89.8273 49.9771 89.4697 50.1304L89.249 49.4639C89.6904 49.2648 90.1471 49.165 90.6188 49.165C91.1438 49.165 91.532 49.2954 91.7983 49.5635C92.0646 49.8315 92.194 50.207 92.194 50.6972V52.8422L92.1788 52.8269ZM91.3798 51.5168V51.3101C91.1362 51.2105 90.8623 51.1645 90.5579 51.1645C90.2992 51.1645 90.0938 51.2182 89.949 51.3177C89.8045 51.4173 89.7284 51.5628 89.7284 51.7391C89.7284 51.9 89.7969 52.0302 89.9262 52.1297C90.0557 52.2293 90.2231 52.2753 90.421 52.2753C90.6949 52.2753 90.9231 52.2063 91.1057 52.0608C91.2885 51.9229 91.3722 51.7391 91.3722 51.5092L91.3798 51.5168Z" />
            <path
                d="M93.8379 53.9293V49.2104H94.6598V49.8156C94.9794 49.3636 95.3828 49.1338 95.8774 49.1338C96.3341 49.1338 96.7221 49.3023 97.0569 49.6471C97.3917 49.9841 97.5517 50.4515 97.5517 51.0259C97.5517 51.6005 97.3841 52.0525 97.0569 52.3972C96.7297 52.7342 96.3341 52.9105 95.8774 52.9105C95.3828 52.9105 94.9794 52.6959 94.6598 52.2746V53.937H93.8379V53.9293ZM95.6872 52.1904C95.9763 52.1904 96.2198 52.0832 96.4178 51.8685C96.6156 51.6541 96.7145 51.3707 96.7145 51.0182C96.7145 50.6659 96.6156 50.3979 96.4178 50.1832C96.2198 49.9688 95.9763 49.8616 95.6872 49.8616C95.398 49.8616 95.1546 49.9688 94.9489 50.1909C94.7435 50.4132 94.637 50.6889 94.637 51.0335C94.637 51.3784 94.7435 51.6464 94.9489 51.8685C95.1546 52.0832 95.4056 52.198 95.6872 52.198V52.1904Z" />
            <path
                d="M99.0801 52.8267V49.2031H99.8942V50.9346L101.462 49.2031H102.428L101.036 50.7276L102.55 52.8267H101.576L100.488 51.3328L99.9018 51.9534V52.8267H99.0877H99.0801Z" />
            <path
                d="M105.244 52.9105C104.719 52.9105 104.277 52.7342 103.927 52.3819C103.577 52.0296 103.402 51.5775 103.402 51.0182C103.402 50.4898 103.57 50.0454 103.897 49.6854C104.232 49.3176 104.65 49.1338 105.16 49.1338C105.708 49.1338 106.127 49.3176 106.431 49.6931C106.735 50.0683 106.888 50.5281 106.888 51.0795C106.888 51.1792 106.888 51.2558 106.872 51.3094H104.232C104.277 51.6005 104.391 51.8226 104.582 51.9834C104.772 52.1444 105 52.2287 105.267 52.2287C105.624 52.2287 105.944 52.0832 106.241 51.7996L106.72 52.2287C106.347 52.6806 105.86 52.9105 105.251 52.9105H105.244ZM104.216 50.7655H106.066C106.035 50.4898 105.944 50.2598 105.784 50.076C105.624 49.8922 105.411 49.8079 105.153 49.8079C104.894 49.8079 104.696 49.8999 104.528 50.076C104.361 50.2522 104.262 50.4821 104.224 50.7655H104.216Z" />
            <path d="M109.026 52.8267V49.9156H107.869V49.2031H111.012V49.9156H109.855V52.8267H109.026Z" />
            <path
                d="M112.352 52.8267V49.2031H113.158V51.6315C113.912 50.5514 114.482 49.7471 114.863 49.2031H115.639V52.8267H114.84V50.4136L113.128 52.8267H112.352Z" />
            <path
                d="M117.352 52.8267V49.2031H118.173V50.674H119.756V49.2031H120.578V52.8267H119.756V51.3635H118.173V52.8267H117.352Z" />
            <path d="M122.299 52.8267V49.2031H124.848V49.9156H123.128V52.8267H122.306H122.299Z" />
            <path d="M23.3618 24.0459H18.248V44.0782H32.9122V39.5585H23.3618V24.0459Z" />
            <path
                d="M62.8193 37.0918L57.8729 24.0459H52.2188L60.3461 44.1931H65.2088L73.3666 24.0459H67.7885L62.8193 37.0918Z" />
            <path
                d="M106.904 24.0459V35.0617L98.2058 24.0459H93.8301V44.0782H98.8603V33.0011L107.672 44.0782H111.911V24.0459H106.904Z" />
            <path d="M90.703 24.0459H75.582V28.5656H90.703V24.0459Z" />
            <path d="M80.0719 34.4026L75.582 31.8057V36.3254H90.703V31.8057H80.0719V34.4026Z" />
            <path d="M80.0719 42.1555L75.582 39.5586V44.0782H90.703V39.5586H80.0719V42.1555Z" />
            <path
                d="M0 24.0459V28.5656V31.806V36.3257V39.5585V44.0782H4.48984H15.6079V39.5585H4.48984V36.3257H15.6079V31.806H4.48984V28.5656H15.6079V24.0459H4.48984H0Z" />
            <path
                d="M35.5605 24.0459V28.5656V31.806V36.3257V39.5585V44.0782H40.0504H50.6814V39.5585H40.0504V36.3257H50.6814V31.806H40.0504V28.5656H50.6814V24.0459H40.0504H35.5605Z" />
        </g>

    </symbol>


    <symbol id="arrow-left" viewBox="0 0 10 16">
        <path d="M8.46094 0.708984L1.41886 7.70898L8.46094 14.709" stroke-width="2" />
    </symbol>

    <symbol id="arrow-right" viewBox="0 0 10 16">
        <path d="M0.705078 14.709L7.74715 7.70899L0.705078 0.708984" stroke-width="2" />
    </symbol>

    <symbol id="plus-icon" viewBox="0 0 26 26">
        <path d="M12.9967 3V23M23 12.9967L3 12.9967" stroke-width="2" />
    </symbol>


</svg>