<svg width="100" height="100" viewBox="0 0 100 100" fill="none" xmlns="http://www.w3.org/2000/svg">
<path d="M54.7236 13.4004C57.1028 13.2023 59.2008 13.5355 61.0439 14.4141C62.8872 15.2928 64.4695 16.714 65.8203 18.6836L66.0869 19.085L66.0879 19.0859C71.2845 27.4291 73.7023 37.5614 76.2578 48.2656C77.6645 54.1579 79.1181 60.2448 81.0791 66.0781L81.2871 66.6768C82.3264 69.5997 83.3901 71.52 84.8018 73.1904C86.3102 74.9753 88.2187 76.4784 90.9326 78.6162L91.3945 78.9805L91.3955 78.9814C92.5262 79.8913 93.5925 80.749 94.2861 81.6787C94.9842 82.6145 95.3113 83.6325 94.9531 84.8564V84.8574C94.715 85.6477 94.3282 86.1762 93.7617 86.4551C93.4706 86.5983 93.1752 86.6543 92.8799 86.6543C92.287 86.6542 91.6899 86.4255 91.127 86.2109C90.8895 86.1207 90.6422 86.0252 90.3838 85.9424H90.3828C87.9381 85.1426 85.5986 84.2204 83.5371 83.4082C81.0287 82.4201 78.8737 81.5714 77.2598 81.2129C74.7762 81.0051 72.7575 80.6348 71.2334 80.1045C69.7099 79.5743 68.6658 78.8788 68.1543 78.0137C67.6967 77.24 67.662 76.3674 68.0479 75.498V75.4971C68.3372 74.8754 68.6666 74.3079 68.9844 73.7607C69.2875 73.2398 69.5709 72.748 69.7861 72.2666C67.6381 63.9665 63.8392 58.8406 60.4736 54.3008C58.2194 51.2603 56.0995 48.4016 54.6475 44.9766C53.216 41.6001 52.4364 37.6767 52.8037 32.4844C40.2037 43.4687 24.4899 51.8296 7.17969 56.7334C6.62113 56.8896 6.03911 56.5679 5.88184 56.0098C5.84414 55.877 5.83362 55.7377 5.84961 55.6006C5.86561 55.4637 5.90844 55.3313 5.97559 55.2109C6.04282 55.0904 6.13298 54.984 6.24121 54.8984C6.34947 54.8128 6.47367 54.7496 6.60645 54.7119C24.5498 49.628 40.7362 40.7763 53.418 29.1162L53.5449 29.0166C53.6785 28.9273 53.8315 28.8688 53.9922 28.8477C54.2065 28.8196 54.4247 28.8589 54.6162 28.959C54.8074 29.0591 54.9633 29.2155 55.0625 29.4072C55.1618 29.5993 55.2 29.818 55.1709 30.0322C54.3884 35.7764 54.9891 39.9789 56.3555 43.5176C57.723 47.0593 59.8591 49.9418 62.1621 53.0479C65.6805 57.7942 69.677 63.1852 71.9111 72.0918V72.0928C71.9635 72.3023 71.9511 72.5229 71.874 72.7246H71.873C71.5905 73.4601 71.1872 74.1541 70.8018 74.8174C70.5117 75.3163 70.2141 75.8234 69.9609 76.3662L69.9619 76.3672C69.8943 76.5195 69.8787 76.6321 69.8857 76.7188C69.8893 76.7619 69.8985 76.801 69.9121 76.8379L69.9639 76.9443L70.0137 77.0195C70.1626 77.2198 70.5492 77.5872 71.5146 77.9727C72.4801 78.3581 74.0196 78.759 76.4668 79.0303L77.5723 79.1387L77.585 79.1396L77.5645 79.2383L77.585 79.1406C79.4904 79.5547 81.7289 80.4368 84.3086 81.4531C86.3463 82.2552 88.6524 83.1635 91.0322 83.9424H91.0312C91.3242 84.0361 91.6092 84.1447 91.877 84.2471C92.051 84.3136 92.2681 84.3917 92.4619 84.4531C92.5588 84.4838 92.6491 84.5107 92.7246 84.5283C92.7645 84.5376 92.7981 84.5439 92.8252 84.5479C92.8294 84.5393 92.8348 84.5303 92.8398 84.5195C92.8648 84.466 92.9004 84.3819 92.9375 84.2578C93.005 84.0268 93.0129 83.8122 92.9531 83.5898C92.8928 83.3654 92.7622 83.1263 92.542 82.8506C92.0994 82.2964 91.3142 81.6152 90.084 80.625V80.624L89.6309 80.2676C86.8487 78.0757 84.8123 76.4716 83.1729 74.5283C81.6335 72.7037 80.4467 70.5832 79.3135 67.4014L79.0869 66.751C77.0943 60.825 75.6293 54.6856 74.2129 48.7539C71.6928 38.1964 69.315 28.2458 64.3115 20.2119V20.2109C63.1216 18.3706 61.7527 17.0831 60.1494 16.3135C58.5466 15.5442 56.7009 15.2877 54.5508 15.5254C33.1528 19.5591 17.8643 24.6679 6.49805 31.5869C6.38018 31.6588 6.24872 31.7063 6.1123 31.7275C5.97605 31.7487 5.83712 31.7425 5.70312 31.71C5.56899 31.6773 5.44246 31.6186 5.33105 31.5371C5.2476 31.476 5.17326 31.4036 5.11133 31.3213L5.05371 31.2354C4.98194 31.1175 4.93334 30.9869 4.91211 30.8506C4.89091 30.7142 4.89705 30.5746 4.92969 30.4404C4.96233 30.3063 5.02103 30.1798 5.10254 30.0684C5.18397 29.9571 5.28649 29.8627 5.4043 29.791C17.0024 22.7302 32.5222 17.5382 54.2363 13.4482L54.2441 13.4473L54.7236 13.4004Z" fill="#0066FF" stroke="#0066FF" stroke-width="0.2"/>
<path d="M38.459 24.6919C42.1549 24.6921 45.1599 27.7244 45.1602 31.4497C45.1602 31.5025 45.1526 31.5532 45.1465 31.6001C47.6637 30.1785 50.3259 28.6108 53.2393 26.8247L54.0176 26.3442L54.3975 26.1089C54.757 25.8886 55.0597 25.717 55.334 25.6206C55.7088 25.4889 56.039 25.4933 56.3965 25.689C56.7435 25.8771 56.9222 26.1532 57.0127 26.4858C57.1012 26.8113 57.1068 27.1967 57.1143 27.6079C57.1222 28.0486 57.1333 28.6405 57.209 29.4028L57.3145 30.187C57.4186 30.9096 57.5413 31.6293 57.6797 32.3462C58.9633 31.1422 60.6783 30.399 62.5664 30.3989C66.5324 30.3989 69.7578 33.6536 69.7578 37.6519C69.7576 41.6507 66.5323 44.9048 62.5664 44.9048C62.289 44.9048 62.0211 44.867 61.7607 44.8296C63.1881 48.0856 64.7271 51.1966 66.1035 53.9175C66.2293 54.1661 66.2508 54.4544 66.1641 54.7192C66.0773 54.984 65.8892 55.2036 65.6406 55.3296C65.3918 55.4554 65.1028 55.478 64.8379 55.3911C64.573 55.3042 64.3535 55.1154 64.2275 54.8667C62.6002 51.649 60.736 47.8949 59.0938 43.9624C56.889 42.7231 55.3751 40.3756 55.375 37.6519C55.375 36.582 55.6216 35.5751 56.0352 34.6616C55.6669 33.1915 55.3625 31.5581 55.1201 29.6421V29.6392C55.0629 29.0668 55.0401 28.5879 55.0273 28.1909L54.3359 28.6187C50.7357 30.8259 47.505 32.7142 44.4648 34.3911C43.3769 36.6405 41.1059 38.2084 38.459 38.2085C38.0928 38.2085 37.7406 38.1578 37.3975 38.1011C33.7865 39.898 30.1009 41.5407 26.3506 43.0249C24.9695 45.0293 22.6761 46.35 20.0762 46.3501C19.3154 46.3501 18.5964 46.2037 17.9082 45.9956C15.615 46.701 13.259 47.3349 10.7061 47.9214C10.4343 47.9836 10.1484 47.9356 9.91211 47.7876C9.67611 47.6396 9.50885 47.4038 9.44629 47.1323C9.38426 46.8606 9.43205 46.5746 9.58008 46.3384C9.7281 46.1023 9.96384 45.9342 10.2354 45.8716C11.9942 45.468 13.6413 45.0304 15.2539 44.5728C13.546 43.1597 12.4327 41.0398 12.4326 38.6411C12.4326 34.3911 15.8607 30.9312 20.0762 30.9312C24.2919 30.9313 27.7197 34.3914 27.7197 38.6411C27.7197 39.1983 27.6425 39.7333 27.5283 40.2524C29.9572 39.2491 32.3571 38.1773 34.7256 37.0386C32.9419 35.824 31.7568 33.7798 31.7568 31.4497C31.757 27.7243 34.7629 24.6919 38.459 24.6919ZM20.0762 33.0337C17.0225 33.0337 14.5352 35.5482 14.5352 38.6411C14.5354 41.7338 17.0226 44.2476 20.0762 44.2476C23.1303 44.2475 25.617 41.7337 25.6172 38.6411C25.6172 35.5483 23.1304 33.0338 20.0762 33.0337ZM62.5664 32.5015C59.7612 32.5015 57.4775 34.8107 57.4775 37.6509C57.4775 40.492 59.7612 42.8013 62.5664 42.8013C65.3715 42.8013 67.6553 40.492 67.6553 37.6509C67.6552 34.8105 65.3714 32.5015 62.5664 32.5015ZM38.459 26.7935C35.9247 26.7935 33.8596 28.8814 33.8594 31.4497C33.8594 34.0176 35.9245 36.106 38.459 36.106C40.9935 36.1058 43.0576 34.0175 43.0576 31.4497C43.0574 28.8817 40.9933 26.7937 38.459 26.7935Z" fill="#0066FF" stroke="#0066FF" stroke-width="0.2"/>
<path d="M20.0762 34.6597C22.2366 34.6597 23.9912 36.4475 23.9912 38.6411C23.991 40.8141 22.2356 42.5835 20.0762 42.5835C17.8977 42.5835 16.1252 40.815 16.125 38.6411C16.125 36.4466 17.8967 34.6597 20.0762 34.6597ZM62.5664 33.7085C64.7449 33.7085 66.5184 35.4769 66.5186 37.6509C66.5186 39.8454 64.7459 41.6323 62.5664 41.6323C60.4065 41.6321 58.6521 39.8443 58.6523 37.6509C58.6525 35.478 60.4075 33.7087 62.5664 33.7085ZM20.0762 36.7622C19.0584 36.7622 18.2266 37.6044 18.2266 38.6411C18.2268 39.6553 19.0565 40.4809 20.0762 40.481C21.074 40.481 21.8885 39.6569 21.8887 38.6411C21.8887 37.5835 21.0902 36.7622 20.0762 36.7622ZM62.5664 35.811C61.5695 35.8113 60.755 36.6352 60.7549 37.6509C60.7549 38.6896 61.5712 39.5296 62.5664 39.5298C63.584 39.5298 64.416 38.6879 64.416 37.6509C64.4159 36.6185 63.6047 35.811 62.5664 35.811ZM38.459 27.5073C40.6375 27.5073 42.4099 29.2753 42.4102 31.4497C42.4102 33.6442 40.6385 35.4312 38.459 35.4312C36.2986 35.4311 34.5439 33.6433 34.5439 31.4497C34.5442 29.2762 36.2996 27.5073 38.459 27.5073ZM38.459 29.6099C37.4616 29.6099 36.6467 30.4339 36.6465 31.4497C36.6465 32.5073 37.4446 33.3286 38.459 33.3286C39.4768 33.3286 40.3086 32.4867 40.3086 31.4497C40.3084 30.4357 39.4786 29.6099 38.459 29.6099Z" fill="#0066FF" stroke="#0066FF" stroke-width="0.2"/>
</svg>
