<svg width="100" height="100" viewBox="0 0 100 100" fill="none" xmlns="http://www.w3.org/2000/svg">
<mask id="path-1-outside-1_2072_801" maskUnits="userSpaceOnUse" x="10.9727" y="11" width="78" height="78" fill="black">
<rect fill="white" x="10.9727" y="11" width="78" height="78"/>
<path d="M79.7012 35.0192V31.9064C79.7012 30.1005 78.2398 28.6392 76.4339 28.6392H75.7567V21.8908C78.2708 21.8727 80.6755 20.8604 82.4457 19.0751L84.4773 17.0434C85.0357 16.485 85.3446 15.7365 85.3446 14.9405C85.3446 14.1445 85.0357 13.396 84.4773 12.8376C83.3486 11.7208 81.4001 11.7208 80.2715 12.8376L78.2398 14.8692C77.5507 15.5702 76.624 15.9504 75.6379 15.9504H59.468C56.9017 15.9504 54.478 16.9484 52.6603 18.7662L50.6286 20.7978C50.0702 21.3562 49.7613 22.1047 49.7613 22.9007C49.7613 23.6967 50.0702 24.4452 50.6286 25.0036C51.187 25.562 51.9355 25.871 52.7315 25.871C53.5276 25.871 54.2642 25.562 54.8345 25.0036L56.8661 22.972C57.5552 22.271 58.4819 21.8908 59.468 21.8908H66.4777V28.6392H65.8005C63.9946 28.6392 62.5333 30.1005 62.5333 31.9064V35.0192C57.876 35.4707 54.2167 39.4033 54.2167 44.1794V49.407L50.3197 51.8307C50.3197 51.7357 50.3316 51.6406 50.3316 51.5456C50.3316 49.7516 49.2029 48.1239 47.5039 47.5179C43.4407 46.0447 36.5379 44.524 32.4508 44.5715C29.742 44.619 22.4709 47.4942 19.7026 48.6229C19.5482 48.3377 19.3343 48.0882 19.0611 47.8981C18.5146 47.5179 17.8136 47.4348 17.1839 47.6605L12.5503 49.407C12.3296 49.4923 12.1511 49.6608 12.0533 49.8763C11.9555 50.0919 11.9463 50.3372 12.0276 50.5595C12.2058 51.0228 12.7167 51.2486 13.18 51.0822L17.8255 49.3357C17.9324 49.3001 18.0156 49.3357 18.0631 49.3595C18.1106 49.3832 18.17 49.4545 18.17 49.5733V66.7294C18.17 66.9551 18.0274 67.1571 17.8136 67.2402L12.5503 69.2125C12.3296 69.2977 12.1511 69.4663 12.0533 69.6818C11.9555 69.8973 11.9463 70.1426 12.0276 70.3649C12.1583 70.7213 12.5028 70.9471 12.8592 70.9471C12.9662 70.9471 13.0731 70.9233 13.1681 70.8877L18.4314 68.9154C19.2512 68.6065 19.8096 67.8462 19.9046 66.9789L25.8213 64.5314C28.0787 63.5928 30.6212 63.771 32.6291 64.9829C34.5894 66.171 37.4171 67.3472 39.318 67.2521C43.2506 67.0739 49.0009 63.7116 54.2167 59.9929V84.7527C54.2167 86.5586 55.678 88.0199 57.4839 88.0199H84.7506C86.5565 88.0199 88.0178 86.5586 88.0178 84.7527V44.1794C88.0178 39.4033 84.3704 35.4588 79.7012 35.0192ZM55.5948 21.7008L53.5632 23.7324C53.1117 24.1839 52.3276 24.1839 51.888 23.7324C51.6623 23.5067 51.5434 23.2096 51.5434 22.8888C51.5434 22.5681 51.6623 22.271 51.888 22.0453L53.9196 20.0137C54.6461 19.2826 55.5109 18.7033 56.4634 18.3097C57.416 17.916 58.4373 17.7158 59.468 17.7207H75.6498C77.1111 17.7207 78.4774 17.1504 79.5111 16.1167L81.5427 14.0851C81.9942 13.6336 82.7783 13.6336 83.2179 14.0851C83.4437 14.3108 83.5625 14.6079 83.5625 14.9286C83.5625 15.2494 83.4437 15.5464 83.2179 15.7722L81.1982 17.8038C80.4716 18.5349 79.6069 19.1142 78.6544 19.5078C77.7018 19.9015 76.6805 20.1017 75.6498 20.0968H59.468C58.0067 20.1087 56.6285 20.6671 55.5948 21.7008ZM68.2599 21.8908H73.9865V28.6392H68.2599V21.8908ZM64.3154 31.8946C64.3154 31.0748 64.9807 30.4095 65.8005 30.4095H76.4339C77.2537 30.4095 77.919 31.0748 77.919 31.8946V34.9598H64.3154V31.8946ZM39.2348 65.4581C37.9636 65.5175 35.5755 64.674 33.5558 63.4502C32.1301 62.5829 30.4786 62.1433 28.8153 62.1433C27.5797 62.1433 26.3322 62.381 25.1441 62.8681L19.9521 65.0185V50.4525C23.1362 49.1338 30.2291 46.3893 32.4865 46.3536C35.9082 46.2942 42.4189 47.5655 46.898 49.1932C47.8841 49.5496 48.5495 50.5 48.5495 51.5456C48.5495 52.3178 47.9198 54.4445 45.4367 53.9812L35.433 51.498C34.9577 51.3792 34.4706 51.6644 34.3518 52.1515C34.233 52.6267 34.53 53.1138 35.0052 53.2327L45.009 55.7158C46.1852 56.0128 47.4089 55.7989 48.4069 55.1336L63.3649 45.8071C64.1253 45.3556 65.1114 45.5457 65.6461 46.2467C66.2045 46.9714 66.1213 47.9813 65.456 48.5991C60.4898 53.1851 46.0901 65.1492 39.2348 65.4581ZM67.1193 49.4426C68.4575 49.4458 69.74 49.9788 70.6863 50.925C71.6326 51.8713 72.1656 53.1538 72.1687 54.492V68.4877C72.1656 69.826 71.6326 71.1085 70.6863 72.0547C69.74 73.001 68.4575 73.534 67.1193 73.5371H55.9988V71.3748C61.06 70.9233 65.0401 66.6581 65.0401 61.4899C65.0401 58.6741 63.8283 56.0009 61.7729 54.1356C64.66 51.7357 66.6084 49.9654 66.6678 49.906C66.8223 49.7634 66.9649 49.609 67.0837 49.4426H67.1193ZM60.371 55.2881C61.2743 56.0496 62.0006 56.9991 62.4992 58.0702C62.9978 59.1414 63.2568 60.3084 63.258 61.4899C63.258 65.6838 60.0739 69.1412 55.9988 69.5927V58.6741C57.5552 57.5217 59.0403 56.3692 60.371 55.2881ZM86.2357 84.7408C86.2357 85.5606 85.5703 86.2259 84.7506 86.2259H57.4839C56.6641 86.2259 55.9988 85.5606 55.9988 84.7408V75.3193H67.1193C70.8856 75.3193 73.9508 72.254 73.9508 68.4877V54.492C73.9508 50.9515 71.242 48.0288 67.7846 47.6962C67.8797 46.817 67.6539 45.914 67.0718 45.1655C66.5409 44.481 65.7782 44.0139 64.9272 43.852C64.0762 43.6901 63.1953 43.8446 62.4501 44.2863L56.0107 48.3021V44.1794C56.0107 40.0805 59.3373 36.7539 63.4362 36.7539H78.822C82.9209 36.7539 86.2476 40.0805 86.2476 44.1794V84.7408H86.2357Z"/>
</mask>
<path d="M79.7012 35.0192V31.9064C79.7012 30.1005 78.2398 28.6392 76.4339 28.6392H75.7567V21.8908C78.2708 21.8727 80.6755 20.8604 82.4457 19.0751L84.4773 17.0434C85.0357 16.485 85.3446 15.7365 85.3446 14.9405C85.3446 14.1445 85.0357 13.396 84.4773 12.8376C83.3486 11.7208 81.4001 11.7208 80.2715 12.8376L78.2398 14.8692C77.5507 15.5702 76.624 15.9504 75.6379 15.9504H59.468C56.9017 15.9504 54.478 16.9484 52.6603 18.7662L50.6286 20.7978C50.0702 21.3562 49.7613 22.1047 49.7613 22.9007C49.7613 23.6967 50.0702 24.4452 50.6286 25.0036C51.187 25.562 51.9355 25.871 52.7315 25.871C53.5276 25.871 54.2642 25.562 54.8345 25.0036L56.8661 22.972C57.5552 22.271 58.4819 21.8908 59.468 21.8908H66.4777V28.6392H65.8005C63.9946 28.6392 62.5333 30.1005 62.5333 31.9064V35.0192C57.876 35.4707 54.2167 39.4033 54.2167 44.1794V49.407L50.3197 51.8307C50.3197 51.7357 50.3316 51.6406 50.3316 51.5456C50.3316 49.7516 49.2029 48.1239 47.5039 47.5179C43.4407 46.0447 36.5379 44.524 32.4508 44.5715C29.742 44.619 22.4709 47.4942 19.7026 48.6229C19.5482 48.3377 19.3343 48.0882 19.0611 47.8981C18.5146 47.5179 17.8136 47.4348 17.1839 47.6605L12.5503 49.407C12.3296 49.4923 12.1511 49.6608 12.0533 49.8763C11.9555 50.0919 11.9463 50.3372 12.0276 50.5595C12.2058 51.0228 12.7167 51.2486 13.18 51.0822L17.8255 49.3357C17.9324 49.3001 18.0156 49.3357 18.0631 49.3595C18.1106 49.3832 18.17 49.4545 18.17 49.5733V66.7294C18.17 66.9551 18.0274 67.1571 17.8136 67.2402L12.5503 69.2125C12.3296 69.2977 12.1511 69.4663 12.0533 69.6818C11.9555 69.8973 11.9463 70.1426 12.0276 70.3649C12.1583 70.7213 12.5028 70.9471 12.8592 70.9471C12.9662 70.9471 13.0731 70.9233 13.1681 70.8877L18.4314 68.9154C19.2512 68.6065 19.8096 67.8462 19.9046 66.9789L25.8213 64.5314C28.0787 63.5928 30.6212 63.771 32.6291 64.9829C34.5894 66.171 37.4171 67.3472 39.318 67.2521C43.2506 67.0739 49.0009 63.7116 54.2167 59.9929V84.7527C54.2167 86.5586 55.678 88.0199 57.4839 88.0199H84.7506C86.5565 88.0199 88.0178 86.5586 88.0178 84.7527V44.1794C88.0178 39.4033 84.3704 35.4588 79.7012 35.0192ZM55.5948 21.7008L53.5632 23.7324C53.1117 24.1839 52.3276 24.1839 51.888 23.7324C51.6623 23.5067 51.5434 23.2096 51.5434 22.8888C51.5434 22.5681 51.6623 22.271 51.888 22.0453L53.9196 20.0137C54.6461 19.2826 55.5109 18.7033 56.4634 18.3097C57.416 17.916 58.4373 17.7158 59.468 17.7207H75.6498C77.1111 17.7207 78.4774 17.1504 79.5111 16.1167L81.5427 14.0851C81.9942 13.6336 82.7783 13.6336 83.2179 14.0851C83.4437 14.3108 83.5625 14.6079 83.5625 14.9286C83.5625 15.2494 83.4437 15.5464 83.2179 15.7722L81.1982 17.8038C80.4716 18.5349 79.6069 19.1142 78.6544 19.5078C77.7018 19.9015 76.6805 20.1017 75.6498 20.0968H59.468C58.0067 20.1087 56.6285 20.6671 55.5948 21.7008ZM68.2599 21.8908H73.9865V28.6392H68.2599V21.8908ZM64.3154 31.8946C64.3154 31.0748 64.9807 30.4095 65.8005 30.4095H76.4339C77.2537 30.4095 77.919 31.0748 77.919 31.8946V34.9598H64.3154V31.8946ZM39.2348 65.4581C37.9636 65.5175 35.5755 64.674 33.5558 63.4502C32.1301 62.5829 30.4786 62.1433 28.8153 62.1433C27.5797 62.1433 26.3322 62.381 25.1441 62.8681L19.9521 65.0185V50.4525C23.1362 49.1338 30.2291 46.3893 32.4865 46.3536C35.9082 46.2942 42.4189 47.5655 46.898 49.1932C47.8841 49.5496 48.5495 50.5 48.5495 51.5456C48.5495 52.3178 47.9198 54.4445 45.4367 53.9812L35.433 51.498C34.9577 51.3792 34.4706 51.6644 34.3518 52.1515C34.233 52.6267 34.53 53.1138 35.0052 53.2327L45.009 55.7158C46.1852 56.0128 47.4089 55.7989 48.4069 55.1336L63.3649 45.8071C64.1253 45.3556 65.1114 45.5457 65.6461 46.2467C66.2045 46.9714 66.1213 47.9813 65.456 48.5991C60.4898 53.1851 46.0901 65.1492 39.2348 65.4581ZM67.1193 49.4426C68.4575 49.4458 69.74 49.9788 70.6863 50.925C71.6326 51.8713 72.1656 53.1538 72.1687 54.492V68.4877C72.1656 69.826 71.6326 71.1085 70.6863 72.0547C69.74 73.001 68.4575 73.534 67.1193 73.5371H55.9988V71.3748C61.06 70.9233 65.0401 66.6581 65.0401 61.4899C65.0401 58.6741 63.8283 56.0009 61.7729 54.1356C64.66 51.7357 66.6084 49.9654 66.6678 49.906C66.8223 49.7634 66.9649 49.609 67.0837 49.4426H67.1193ZM60.371 55.2881C61.2743 56.0496 62.0006 56.9991 62.4992 58.0702C62.9978 59.1414 63.2568 60.3084 63.258 61.4899C63.258 65.6838 60.0739 69.1412 55.9988 69.5927V58.6741C57.5552 57.5217 59.0403 56.3692 60.371 55.2881ZM86.2357 84.7408C86.2357 85.5606 85.5703 86.2259 84.7506 86.2259H57.4839C56.6641 86.2259 55.9988 85.5606 55.9988 84.7408V75.3193H67.1193C70.8856 75.3193 73.9508 72.254 73.9508 68.4877V54.492C73.9508 50.9515 71.242 48.0288 67.7846 47.6962C67.8797 46.817 67.6539 45.914 67.0718 45.1655C66.5409 44.481 65.7782 44.0139 64.9272 43.852C64.0762 43.6901 63.1953 43.8446 62.4501 44.2863L56.0107 48.3021V44.1794C56.0107 40.0805 59.3373 36.7539 63.4362 36.7539H78.822C82.9209 36.7539 86.2476 40.0805 86.2476 44.1794V84.7408H86.2357Z" fill="#0066FF"/>
<path d="M79.7012 35.0192V31.9064C79.7012 30.1005 78.2398 28.6392 76.4339 28.6392H75.7567V21.8908C78.2708 21.8727 80.6755 20.8604 82.4457 19.0751L84.4773 17.0434C85.0357 16.485 85.3446 15.7365 85.3446 14.9405C85.3446 14.1445 85.0357 13.396 84.4773 12.8376C83.3486 11.7208 81.4001 11.7208 80.2715 12.8376L78.2398 14.8692C77.5507 15.5702 76.624 15.9504 75.6379 15.9504H59.468C56.9017 15.9504 54.478 16.9484 52.6603 18.7662L50.6286 20.7978C50.0702 21.3562 49.7613 22.1047 49.7613 22.9007C49.7613 23.6967 50.0702 24.4452 50.6286 25.0036C51.187 25.562 51.9355 25.871 52.7315 25.871C53.5276 25.871 54.2642 25.562 54.8345 25.0036L56.8661 22.972C57.5552 22.271 58.4819 21.8908 59.468 21.8908H66.4777V28.6392H65.8005C63.9946 28.6392 62.5333 30.1005 62.5333 31.9064V35.0192C57.876 35.4707 54.2167 39.4033 54.2167 44.1794V49.407L50.3197 51.8307C50.3197 51.7357 50.3316 51.6406 50.3316 51.5456C50.3316 49.7516 49.2029 48.1239 47.5039 47.5179C43.4407 46.0447 36.5379 44.524 32.4508 44.5715C29.742 44.619 22.4709 47.4942 19.7026 48.6229C19.5482 48.3377 19.3343 48.0882 19.0611 47.8981C18.5146 47.5179 17.8136 47.4348 17.1839 47.6605L12.5503 49.407C12.3296 49.4923 12.1511 49.6608 12.0533 49.8763C11.9555 50.0919 11.9463 50.3372 12.0276 50.5595C12.2058 51.0228 12.7167 51.2486 13.18 51.0822L17.8255 49.3357C17.9324 49.3001 18.0156 49.3357 18.0631 49.3595C18.1106 49.3832 18.17 49.4545 18.17 49.5733V66.7294C18.17 66.9551 18.0274 67.1571 17.8136 67.2402L12.5503 69.2125C12.3296 69.2977 12.1511 69.4663 12.0533 69.6818C11.9555 69.8973 11.9463 70.1426 12.0276 70.3649C12.1583 70.7213 12.5028 70.9471 12.8592 70.9471C12.9662 70.9471 13.0731 70.9233 13.1681 70.8877L18.4314 68.9154C19.2512 68.6065 19.8096 67.8462 19.9046 66.9789L25.8213 64.5314C28.0787 63.5928 30.6212 63.771 32.6291 64.9829C34.5894 66.171 37.4171 67.3472 39.318 67.2521C43.2506 67.0739 49.0009 63.7116 54.2167 59.9929V84.7527C54.2167 86.5586 55.678 88.0199 57.4839 88.0199H84.7506C86.5565 88.0199 88.0178 86.5586 88.0178 84.7527V44.1794C88.0178 39.4033 84.3704 35.4588 79.7012 35.0192ZM55.5948 21.7008L53.5632 23.7324C53.1117 24.1839 52.3276 24.1839 51.888 23.7324C51.6623 23.5067 51.5434 23.2096 51.5434 22.8888C51.5434 22.5681 51.6623 22.271 51.888 22.0453L53.9196 20.0137C54.6461 19.2826 55.5109 18.7033 56.4634 18.3097C57.416 17.916 58.4373 17.7158 59.468 17.7207H75.6498C77.1111 17.7207 78.4774 17.1504 79.5111 16.1167L81.5427 14.0851C81.9942 13.6336 82.7783 13.6336 83.2179 14.0851C83.4437 14.3108 83.5625 14.6079 83.5625 14.9286C83.5625 15.2494 83.4437 15.5464 83.2179 15.7722L81.1982 17.8038C80.4716 18.5349 79.6069 19.1142 78.6544 19.5078C77.7018 19.9015 76.6805 20.1017 75.6498 20.0968H59.468C58.0067 20.1087 56.6285 20.6671 55.5948 21.7008ZM68.2599 21.8908H73.9865V28.6392H68.2599V21.8908ZM64.3154 31.8946C64.3154 31.0748 64.9807 30.4095 65.8005 30.4095H76.4339C77.2537 30.4095 77.919 31.0748 77.919 31.8946V34.9598H64.3154V31.8946ZM39.2348 65.4581C37.9636 65.5175 35.5755 64.674 33.5558 63.4502C32.1301 62.5829 30.4786 62.1433 28.8153 62.1433C27.5797 62.1433 26.3322 62.381 25.1441 62.8681L19.9521 65.0185V50.4525C23.1362 49.1338 30.2291 46.3893 32.4865 46.3536C35.9082 46.2942 42.4189 47.5655 46.898 49.1932C47.8841 49.5496 48.5495 50.5 48.5495 51.5456C48.5495 52.3178 47.9198 54.4445 45.4367 53.9812L35.433 51.498C34.9577 51.3792 34.4706 51.6644 34.3518 52.1515C34.233 52.6267 34.53 53.1138 35.0052 53.2327L45.009 55.7158C46.1852 56.0128 47.4089 55.7989 48.4069 55.1336L63.3649 45.8071C64.1253 45.3556 65.1114 45.5457 65.6461 46.2467C66.2045 46.9714 66.1213 47.9813 65.456 48.5991C60.4898 53.1851 46.0901 65.1492 39.2348 65.4581ZM67.1193 49.4426C68.4575 49.4458 69.74 49.9788 70.6863 50.925C71.6326 51.8713 72.1656 53.1538 72.1687 54.492V68.4877C72.1656 69.826 71.6326 71.1085 70.6863 72.0547C69.74 73.001 68.4575 73.534 67.1193 73.5371H55.9988V71.3748C61.06 70.9233 65.0401 66.6581 65.0401 61.4899C65.0401 58.6741 63.8283 56.0009 61.7729 54.1356C64.66 51.7357 66.6084 49.9654 66.6678 49.906C66.8223 49.7634 66.9649 49.609 67.0837 49.4426H67.1193ZM60.371 55.2881C61.2743 56.0496 62.0006 56.9991 62.4992 58.0702C62.9978 59.1414 63.2568 60.3084 63.258 61.4899C63.258 65.6838 60.0739 69.1412 55.9988 69.5927V58.6741C57.5552 57.5217 59.0403 56.3692 60.371 55.2881ZM86.2357 84.7408C86.2357 85.5606 85.5703 86.2259 84.7506 86.2259H57.4839C56.6641 86.2259 55.9988 85.5606 55.9988 84.7408V75.3193H67.1193C70.8856 75.3193 73.9508 72.254 73.9508 68.4877V54.492C73.9508 50.9515 71.242 48.0288 67.7846 47.6962C67.8797 46.817 67.6539 45.914 67.0718 45.1655C66.5409 44.481 65.7782 44.0139 64.9272 43.852C64.0762 43.6901 63.1953 43.8446 62.4501 44.2863L56.0107 48.3021V44.1794C56.0107 40.0805 59.3373 36.7539 63.4362 36.7539H78.822C82.9209 36.7539 86.2476 40.0805 86.2476 44.1794V84.7408H86.2357Z" stroke="#0066FF" stroke-width="0.4" mask="url(#path-1-outside-1_2072_801)"/>
<path d="M50.2725 28.7058C50.6269 28.7059 50.9576 28.8893 51.1309 29.1951L51.416 29.6941C51.7811 30.3403 52.3582 31.3905 52.8984 32.5056C53.2586 33.249 53.6036 34.0232 53.8584 34.7263C54.1121 35.4263 54.2812 36.0668 54.2812 36.5398C54.2812 38.7454 52.478 40.5485 50.2725 40.5486H50.2715C49.209 40.544 48.191 40.121 47.4385 39.3708C46.6859 38.6205 46.2597 37.6035 46.252 36.5408V36.5398C46.252 36.0668 46.421 35.4262 46.6758 34.7263C46.9317 34.0232 47.278 33.249 47.6396 32.5056C48.3629 31.0189 49.1513 29.6473 49.4131 29.1951L49.415 29.1931C49.5989 28.8912 49.9156 28.7058 50.2725 28.7058ZM50.2725 31.7156C49.7795 32.6418 49.2852 33.6318 48.9082 34.4919C48.7084 34.9478 48.5421 35.3659 48.4258 35.7175C48.3085 36.0721 48.2451 36.3493 48.2451 36.5281C48.2452 37.6375 49.1519 38.5544 50.2725 38.5544C51.3933 38.5543 52.2988 37.649 52.2988 36.5281C52.2988 36.3463 52.2364 36.0675 52.1191 35.7126C52.0028 35.3606 51.8355 34.9431 51.6357 34.488C51.2588 33.6294 50.7655 32.6415 50.2725 31.7156Z" fill="#0066FF" stroke="#0066FF" stroke-width="0.2"/>
</svg>
