<svg width="100" height="100" viewBox="0 0 100 100" fill="none" xmlns="http://www.w3.org/2000/svg">
<path d="M64.9375 4.84961C72.8945 4.84961 80.3743 7.97874 85.9961 13.6562C97.5988 25.3757 97.5986 44.4441 85.9961 56.165C80.3756 61.858 72.8969 64.997 64.9385 64.9971C58.6429 64.9971 52.6652 63.0041 47.6523 59.3652L45.5039 61.5352L45.7725 61.8066C46.2337 62.273 46.4911 62.913 46.4795 63.5645V63.5654C46.4675 64.204 46.2081 64.7937 45.749 65.2285L45.75 65.2295L18.4062 92.8828C16.9602 94.3452 15.0279 95.1504 12.9668 95.1504H12.9648C10.9099 95.1503 8.98378 94.351 7.53809 92.8994H7.53711L7.53027 92.8916C7.52785 92.8892 7.52488 92.8872 7.52246 92.8848L7.50391 92.8652L7.50195 92.8623C4.56121 89.8304 4.56739 84.9455 7.52246 81.959L34.9248 54.2822C35.3371 53.8375 35.93 53.5742 36.5684 53.5625H36.5703C37.1724 53.5612 37.8563 53.8118 38.3213 54.2832L38.5781 54.543L40.7451 52.377C32.4282 40.642 33.45 24.1898 43.8799 13.6562C49.5012 7.97883 56.98 4.84971 64.9375 4.84961ZM36.5947 55.6719C36.5685 55.6729 36.5426 55.6789 36.5186 55.6895C36.4923 55.701 36.4687 55.7181 36.4492 55.7393L36.4453 55.7432L9.02148 83.4424C6.86804 85.6193 6.86761 89.1897 9.02246 91.4023C10.07 92.4594 11.471 93.0409 12.9648 93.041C14.4599 93.041 15.8608 92.4586 16.9072 91.4004L44.2734 63.7256L44.2764 63.7217C44.3592 63.6431 44.3695 63.5745 44.3701 63.5283V63.5273C44.3707 63.4898 44.3652 63.4251 44.3252 63.3574L44.2725 63.29L43.2832 62.291L43.2812 62.29L43.2695 62.2783L37.8252 56.7793L37.8076 56.7627L37.8057 56.7598L36.8223 55.7666C36.7467 55.6895 36.6801 55.6857 36.5947 55.6719ZM64.9375 6.95898C57.5469 6.95908 50.6016 9.86428 45.3789 15.1406C34.7549 25.8698 34.5878 43.2226 44.8779 54.1611L45.376 54.6777C45.3768 54.6785 45.3824 54.6832 45.3867 54.6875V54.6885C46.0082 55.3162 46.6592 55.9139 47.3369 56.4805L47.5684 56.668L47.5703 56.6689C52.474 60.6934 58.536 62.8876 64.9375 62.8877C72.3279 62.8877 79.2735 59.9731 84.4961 54.6816C95.2894 43.7788 95.2893 26.0411 84.4971 15.1406C79.2747 9.86416 72.3281 6.95898 64.9375 6.95898ZM40.0615 56.041L44.0195 60.0361L45.9473 58.0908C45.32 57.5704 44.7091 56.9891 44.1143 56.3809L44.0029 56.2793C43.9637 56.2448 43.9205 56.2063 43.8789 56.1641L43.8633 56.1484L43.8623 56.1465C43.2006 55.504 42.5766 54.8241 41.9902 54.1123L40.0615 56.041Z" fill="#0066FF" stroke="#0066FF" stroke-width="0.3"/>
<path d="M37.4238 61.6394C37.703 61.6381 37.9719 61.7473 38.1709 61.9431V61.9441C38.3693 62.1411 38.482 62.4086 38.4834 62.6882C38.4848 62.9679 38.3743 63.2364 38.1777 63.4353V63.4363L12.8906 88.9783C12.7932 89.0767 12.6765 89.1541 12.5488 89.2078C12.4211 89.2614 12.284 89.2901 12.1455 89.2908C12.0072 89.2914 11.8703 89.264 11.7422 89.2117C11.646 89.1724 11.5559 89.1197 11.4756 89.0544L11.3984 88.9851C11.2001 88.7882 11.0874 88.5205 11.0859 88.241C11.0846 87.9613 11.195 87.6918 11.3916 87.4929L36.6797 61.9509L36.7568 61.8806C36.9439 61.7267 37.1795 61.6406 37.4238 61.6394ZM64.9199 9.33667C71.688 9.33667 78.0547 12.0013 82.8447 16.8396C87.753 21.7974 90.2158 28.3005 90.2451 34.8113C90.2482 34.8271 90.2531 34.8414 90.2607 34.8718C90.268 34.9008 90.2765 34.9418 90.2764 34.988C90.2539 38.8627 89.3813 42.5964 87.7695 45.9832L87.4375 46.655C87.4235 46.6826 87.4112 46.7113 87.3965 46.7439L87.3477 46.8464C87.0308 47.4529 86.6769 48.0399 86.3135 48.6169C86.272 48.683 86.2335 48.7512 86.1924 48.823C86.152 48.8936 86.1093 48.9679 86.0615 49.0408C85.7064 49.5814 85.3142 50.0978 84.9209 50.6082C84.861 50.6858 84.8054 50.7658 84.7461 50.8494C84.6875 50.932 84.6253 51.0178 84.5576 51.1013C84.0211 51.7637 83.4515 52.4043 82.8447 53.0173C78.0551 57.8541 71.6889 60.5202 64.9209 60.5203C58.1518 60.5203 51.7851 57.8544 46.9951 53.0173C42.225 48.1999 39.5987 41.7946 39.5986 34.9822C39.5986 34.9429 39.6075 34.9097 39.6123 34.8923C39.6153 34.8815 39.6168 34.8774 39.6182 34.8718V34.8708C39.6326 28.3404 42.0901 21.8138 46.9941 16.8416V16.8406C51.785 12.0011 58.1513 9.33676 64.9199 9.33667ZM41.7725 36.0369C41.7843 36.374 41.7914 36.7035 41.8203 37.0339C41.8279 37.1202 41.8321 37.1902 41.8398 37.2712L41.9189 37.9656C42.3613 41.4326 43.5609 44.8179 45.5244 47.8406C45.5281 47.8463 45.5312 47.8526 45.5322 47.8542H45.5332L45.5342 47.8572C45.9346 48.4723 46.3724 49.07 46.8369 49.6541H46.8359C46.8536 49.6761 46.8705 49.6981 46.8838 49.7166C46.8979 49.7361 46.909 49.7527 46.9209 49.7673L47.2979 50.2234C47.68 50.6744 48.079 51.1109 48.4941 51.532C51.2385 54.3051 54.5468 56.299 58.1553 57.4041C60.3204 58.0672 62.5941 58.4109 64.9199 58.4109C71.121 58.4109 76.9547 55.9692 81.3457 51.533C81.8863 50.9853 82.3994 50.4112 82.8838 49.8132V49.8123C82.9512 49.7296 83.0153 49.6438 83.0801 49.5544C83.1442 49.466 83.2102 49.3731 83.2793 49.283C83.6142 48.8465 83.9431 48.4112 84.2402 47.9617L84.4189 47.6746C84.4764 47.578 84.5338 47.4796 84.5977 47.3767C84.8814 46.9187 85.159 46.4618 85.4062 45.9939L85.6807 45.4333L86.042 44.6824C86.1583 44.4309 86.2698 44.1783 86.374 43.9236V43.9226C86.4423 43.7565 86.4977 43.5958 86.5654 43.4197C86.7734 42.8756 86.9668 42.3289 87.1328 41.7761C87.1774 41.6276 87.2141 41.483 87.2578 41.3269C87.4202 40.744 87.5657 40.158 87.6826 39.5681V39.5671C87.7082 39.4392 87.7283 39.3148 87.7529 39.1804C87.8657 38.5566 87.958 37.9303 88.0205 37.3025C88.03 37.2074 88.036 37.1168 88.0449 37.0173L88.0791 36.4529C88.0845 36.3151 88.0889 36.1767 88.0938 36.0369H41.7725ZM64.9199 11.4451C58.9117 11.4452 53.25 13.7375 48.9102 17.9138L48.4941 18.324C44.2304 22.6463 42.005 28.2511 41.7686 33.9275H58.0996C57.198 29.9143 54.9182 26.9647 52.835 25.0046C51.7781 24.0103 50.7734 23.2719 50.0283 22.78C49.6561 22.5343 49.349 22.35 49.1328 22.2263C49.0249 22.1646 48.9391 22.1184 48.8799 22.0867C48.8502 22.0708 48.8267 22.0579 48.8105 22.0496C48.8028 22.0455 48.7964 22.043 48.792 22.0408C48.7875 22.0385 48.7853 22.0369 48.7852 22.0369H48.7842C48.5331 21.9139 48.3417 21.6958 48.251 21.4314C48.1604 21.1669 48.1779 20.8769 48.3008 20.6257C48.4238 20.3746 48.6417 20.1823 48.9062 20.0916C49.1709 20.0009 49.4607 20.0194 49.7119 20.1423H49.7129C50.086 20.3262 58.4067 24.5169 60.252 33.9275H68.8135C67.7442 28.7538 64.8513 24.9567 62.1934 22.4382C59.5201 19.9053 57.0928 18.6714 57.0234 18.6365C56.7726 18.5135 56.5808 18.2963 56.4902 18.032C56.3997 17.7677 56.4173 17.4783 56.54 17.2273L56.5918 17.1326C56.8726 16.6777 57.4556 16.504 57.9492 16.7419L57.9502 16.7429C58.4062 16.966 68.7919 22.19 70.9639 33.9275H80.958C79.9239 28.92 77.1284 25.2584 74.5605 22.8337C71.9652 20.3832 69.6094 19.203 69.5635 19.1804C69.4391 19.1202 69.3282 19.0356 69.2363 18.9324C69.1443 18.8289 69.0727 18.7078 69.0273 18.5769C68.9821 18.4462 68.9634 18.3077 68.9717 18.1697C68.98 18.0314 69.0155 17.8957 69.0762 17.7712C69.1364 17.6467 69.2209 17.5351 69.3242 17.4431C69.4276 17.3512 69.548 17.2804 69.6787 17.2351C69.8096 17.1898 69.9486 17.171 70.0869 17.1794C70.2252 17.1879 70.3609 17.223 70.4854 17.2839C70.934 17.502 81.0068 22.5512 83.1084 33.9275H88.0967C87.8593 28.2516 85.6257 22.6469 81.3457 18.324C76.9547 13.8878 71.121 11.4451 64.9199 11.4451Z" fill="#0066FF" stroke="#0066FF" stroke-width="0.3"/>
</svg>
