<svg width="100" height="100" viewBox="0 0 100 100" fill="none" xmlns="http://www.w3.org/2000/svg">
<mask id="path-1-outside-1_2072_822" maskUnits="userSpaceOnUse" x="11.9961" y="9" width="76" height="82" fill="black">
<rect fill="white" x="11.9961" y="9" width="76" height="82"/>
<path d="M86.1628 89.9999H13.8386C13.3739 89.9999 12.9963 89.6233 12.9963 89.1574C12.9963 88.6914 13.3739 88.3147 13.8386 88.3147H86.1628C86.3863 88.3147 86.6006 88.4035 86.7586 88.5615C86.9167 88.7195 87.0054 88.9338 87.0054 89.1573C87.0054 89.3808 86.9167 89.5951 86.7586 89.7531C86.6006 89.9111 86.3863 89.9999 86.1628 89.9999ZM86.1628 82.0486H13.8386C13.6172 82.0454 13.4061 81.9552 13.2507 81.7975C13.0953 81.6398 13.0082 81.4274 13.0082 81.206C13.0082 80.9846 13.0953 80.7721 13.2507 80.6145C13.4061 80.4568 13.6172 80.3666 13.8386 80.3634H86.1628C86.3842 80.3666 86.5954 80.4568 86.7508 80.6145C86.9062 80.7721 86.9933 80.9846 86.9933 81.206C86.9933 81.4274 86.9062 81.6398 86.7508 81.7975C86.5954 81.9552 86.3842 82.0454 86.1628 82.0486ZM60.3758 77.0946H54.6372C54.5255 77.0962 54.4146 77.0757 54.311 77.034C54.2073 76.9924 54.113 76.9306 54.0334 76.8522C53.9539 76.7738 53.8907 76.6804 53.8476 76.5773C53.8045 76.4743 53.7823 76.3637 53.7823 76.252C53.7823 76.1404 53.8045 76.0298 53.8476 75.9267C53.8907 75.8237 53.9539 75.7303 54.0334 75.6519C54.113 75.5735 54.2073 75.5117 54.311 75.4701C54.4146 75.4284 54.5255 75.4078 54.6372 75.4095H60.3758C60.5972 75.4127 60.8084 75.5029 60.9638 75.6605C61.1191 75.8182 61.2063 76.0307 61.2063 76.252C61.2063 76.4734 61.1191 76.6859 60.9638 76.8436C60.8084 77.0012 60.5972 77.0914 60.3758 77.0946ZM28.5838 74.399H18.1079C17.8845 74.399 17.6701 74.3102 17.5121 74.1522C17.3541 73.9942 17.2653 73.7799 17.2653 73.5564C17.2653 73.3329 17.3541 73.1186 17.5121 72.9606C17.6701 72.8026 17.8845 72.7138 18.1079 72.7138H28.5838C28.8052 72.717 29.0164 72.8072 29.1718 72.9649C29.3272 73.1226 29.4143 73.335 29.4143 73.5564C29.4143 73.7778 29.3272 73.9902 29.1718 74.1479C29.0164 74.3056 28.8052 74.3958 28.5838 74.399ZM79.6907 72.951H70.4494C70.3377 72.9526 70.2269 72.932 70.1232 72.8904C70.0196 72.8488 69.9252 72.787 69.8457 72.7086C69.7661 72.6302 69.703 72.5367 69.6598 72.4337C69.6167 72.3307 69.5945 72.2201 69.5945 72.1084C69.5945 71.9967 69.6167 71.8861 69.6598 71.7831C69.703 71.6801 69.7661 71.5866 69.8457 71.5082C69.9252 71.4298 70.0196 71.368 70.1232 71.3264C70.2269 71.2848 70.3377 71.2642 70.4494 71.2658H79.6907C79.8013 71.2658 79.9109 71.2875 80.0132 71.3299C80.1154 71.3722 80.2083 71.4342 80.2866 71.5125C80.3648 71.5907 80.4269 71.6836 80.4692 71.7858C80.5116 71.8881 80.5334 71.9977 80.5333 72.1083C80.5334 72.219 80.5116 72.3286 80.4692 72.4308C80.4269 72.5331 80.3648 72.626 80.2866 72.7042C80.2083 72.7825 80.1154 72.8445 80.0132 72.8869C79.9109 72.9292 79.8013 72.951 79.6907 72.951ZM47.584 69.3764C42.0469 69.3764 36.5998 68.0173 32.365 65.3035C25.1197 60.6432 20.6761 62.5654 15.5289 64.7871L14.1646 65.3702C13.7385 65.5584 13.2432 65.3501 13.0619 64.9206C13.019 64.8187 12.9967 64.7093 12.9961 64.5987C12.9956 64.4882 13.0168 64.3786 13.0587 64.2762C13.1005 64.1739 13.1622 64.0808 13.2401 64.0024C13.3179 63.9239 13.4105 63.8615 13.5126 63.8189L14.8613 63.2397C20.2181 60.9288 25.2793 58.7414 33.2752 63.8857C41.2366 68.9855 53.7781 68.9855 62.4485 63.8696C73.2786 57.5263 82.6701 63.0655 86.2043 65.7408C86.3822 65.876 86.4993 66.0762 86.5298 66.2976C86.5604 66.5189 86.5019 66.7433 86.3673 66.9216C86.0878 67.2923 85.5591 67.3632 85.1874 67.0857C81.9205 64.6086 73.2525 59.4868 63.3033 65.3216C58.72 68.0233 53.1069 69.3743 47.584 69.3764ZM48.8325 59.7766C37.9861 59.7766 31.5101 53.4777 31.5101 42.9302C31.5101 38.0169 34.8457 32.82 39.0685 26.2399C41.9961 21.6788 45.3154 16.5083 48.0669 10.5033C48.1334 10.3567 48.2408 10.2322 48.3763 10.145C48.5117 10.0577 48.6693 10.0113 48.8304 10.0113C49.1342 9.94245 49.4581 10.1995 49.597 10.4993C52.5053 16.7656 55.8228 21.9442 58.7493 26.5133C62.8677 32.9437 66.1214 38.0208 66.1214 42.9302C66.1214 53.4777 59.6578 59.7766 48.8325 59.7766ZM48.8356 12.8203C46.2027 18.244 43.181 22.9528 40.4862 27.1512C36.4125 33.4985 33.1952 38.5112 33.1952 42.9302C33.1952 47.4893 34.7193 58.0916 48.8325 58.0916C62.9165 58.0916 64.4363 47.4893 64.4363 42.9302C64.4363 38.5151 61.3012 33.62 57.3305 27.4226C54.6279 23.2038 51.5961 18.4708 48.8356 12.8203ZM52.7364 53.0383C52.5546 53.0382 52.3777 52.9794 52.2321 52.8707C52.0864 52.7619 51.9798 52.609 51.9282 52.4347C51.8651 52.2204 51.8896 51.9898 51.9962 51.7935C52.1029 51.5972 52.2831 51.4512 52.4973 51.3876C57.7479 49.8342 58.5317 45.085 58.5317 42.3913C58.5317 42.1679 58.6205 41.9536 58.7785 41.7955C58.9365 41.6375 59.1509 41.5488 59.3743 41.5488C59.5978 41.5488 59.8121 41.6375 59.9701 41.7955C60.1281 41.9536 60.2169 42.1679 60.2169 42.3913C60.2169 47.7744 57.5771 51.6429 52.9755 53.0038C52.8977 53.0261 52.8173 53.0377 52.7364 53.0383ZM48.8325 43.8395C48.6091 43.8395 48.3947 43.7507 48.2367 43.5927C48.0787 43.4347 47.9899 43.2203 47.9899 42.9968V37.9094H42.9277C42.816 37.911 42.7051 37.8904 42.6014 37.8488C42.4978 37.8072 42.4035 37.7454 42.3239 37.667C42.2444 37.5886 42.1812 37.4951 42.1381 37.3921C42.095 37.2891 42.0728 37.1785 42.0728 37.0668C42.0728 36.9551 42.095 36.8445 42.1381 36.7415C42.1812 36.6385 42.2444 36.545 42.3239 36.4666C42.4035 36.3882 42.4978 36.3264 42.6014 36.2848C42.7051 36.2432 42.816 36.2226 42.9277 36.2242H47.9899V31.1368C47.9883 31.0251 48.0089 30.9142 48.0505 30.8105C48.0921 30.7069 48.1539 30.6126 48.2323 30.533C48.3107 30.4535 48.4041 30.3903 48.5072 30.3472C48.6102 30.3041 48.7208 30.2819 48.8325 30.2819C48.9441 30.2819 49.0547 30.3041 49.1578 30.3472C49.2608 30.3903 49.3542 30.4535 49.4326 30.533C49.511 30.6126 49.5728 30.7069 49.6144 30.8105C49.6561 30.9142 49.6767 31.0251 49.675 31.1368V36.2242H54.7038C54.9252 36.2274 55.1364 36.3176 55.2918 36.4753C55.4472 36.633 55.5343 36.8454 55.5343 37.0668C55.5343 37.2882 55.4472 37.5007 55.2918 37.6583C55.1364 37.816 54.9252 37.9062 54.7038 37.9094H49.675V42.9968C49.675 43.2203 49.5863 43.4346 49.4283 43.5926C49.2703 43.7507 49.056 43.8395 48.8325 43.8395Z"/>
</mask>
<path d="M86.1628 89.9999H13.8386C13.3739 89.9999 12.9963 89.6233 12.9963 89.1574C12.9963 88.6914 13.3739 88.3147 13.8386 88.3147H86.1628C86.3863 88.3147 86.6006 88.4035 86.7586 88.5615C86.9167 88.7195 87.0054 88.9338 87.0054 89.1573C87.0054 89.3808 86.9167 89.5951 86.7586 89.7531C86.6006 89.9111 86.3863 89.9999 86.1628 89.9999ZM86.1628 82.0486H13.8386C13.6172 82.0454 13.4061 81.9552 13.2507 81.7975C13.0953 81.6398 13.0082 81.4274 13.0082 81.206C13.0082 80.9846 13.0953 80.7721 13.2507 80.6145C13.4061 80.4568 13.6172 80.3666 13.8386 80.3634H86.1628C86.3842 80.3666 86.5954 80.4568 86.7508 80.6145C86.9062 80.7721 86.9933 80.9846 86.9933 81.206C86.9933 81.4274 86.9062 81.6398 86.7508 81.7975C86.5954 81.9552 86.3842 82.0454 86.1628 82.0486ZM60.3758 77.0946H54.6372C54.5255 77.0962 54.4146 77.0757 54.311 77.034C54.2073 76.9924 54.113 76.9306 54.0334 76.8522C53.9539 76.7738 53.8907 76.6804 53.8476 76.5773C53.8045 76.4743 53.7823 76.3637 53.7823 76.252C53.7823 76.1404 53.8045 76.0298 53.8476 75.9267C53.8907 75.8237 53.9539 75.7303 54.0334 75.6519C54.113 75.5735 54.2073 75.5117 54.311 75.4701C54.4146 75.4284 54.5255 75.4078 54.6372 75.4095H60.3758C60.5972 75.4127 60.8084 75.5029 60.9638 75.6605C61.1191 75.8182 61.2063 76.0307 61.2063 76.252C61.2063 76.4734 61.1191 76.6859 60.9638 76.8436C60.8084 77.0012 60.5972 77.0914 60.3758 77.0946ZM28.5838 74.399H18.1079C17.8845 74.399 17.6701 74.3102 17.5121 74.1522C17.3541 73.9942 17.2653 73.7799 17.2653 73.5564C17.2653 73.3329 17.3541 73.1186 17.5121 72.9606C17.6701 72.8026 17.8845 72.7138 18.1079 72.7138H28.5838C28.8052 72.717 29.0164 72.8072 29.1718 72.9649C29.3272 73.1226 29.4143 73.335 29.4143 73.5564C29.4143 73.7778 29.3272 73.9902 29.1718 74.1479C29.0164 74.3056 28.8052 74.3958 28.5838 74.399ZM79.6907 72.951H70.4494C70.3377 72.9526 70.2269 72.932 70.1232 72.8904C70.0196 72.8488 69.9252 72.787 69.8457 72.7086C69.7661 72.6302 69.703 72.5367 69.6598 72.4337C69.6167 72.3307 69.5945 72.2201 69.5945 72.1084C69.5945 71.9967 69.6167 71.8861 69.6598 71.7831C69.703 71.6801 69.7661 71.5866 69.8457 71.5082C69.9252 71.4298 70.0196 71.368 70.1232 71.3264C70.2269 71.2848 70.3377 71.2642 70.4494 71.2658H79.6907C79.8013 71.2658 79.9109 71.2875 80.0132 71.3299C80.1154 71.3722 80.2083 71.4342 80.2866 71.5125C80.3648 71.5907 80.4269 71.6836 80.4692 71.7858C80.5116 71.8881 80.5334 71.9977 80.5333 72.1083C80.5334 72.219 80.5116 72.3286 80.4692 72.4308C80.4269 72.5331 80.3648 72.626 80.2866 72.7042C80.2083 72.7825 80.1154 72.8445 80.0132 72.8869C79.9109 72.9292 79.8013 72.951 79.6907 72.951ZM47.584 69.3764C42.0469 69.3764 36.5998 68.0173 32.365 65.3035C25.1197 60.6432 20.6761 62.5654 15.5289 64.7871L14.1646 65.3702C13.7385 65.5584 13.2432 65.3501 13.0619 64.9206C13.019 64.8187 12.9967 64.7093 12.9961 64.5987C12.9956 64.4882 13.0168 64.3786 13.0587 64.2762C13.1005 64.1739 13.1622 64.0808 13.2401 64.0024C13.3179 63.9239 13.4105 63.8615 13.5126 63.8189L14.8613 63.2397C20.2181 60.9288 25.2793 58.7414 33.2752 63.8857C41.2366 68.9855 53.7781 68.9855 62.4485 63.8696C73.2786 57.5263 82.6701 63.0655 86.2043 65.7408C86.3822 65.876 86.4993 66.0762 86.5298 66.2976C86.5604 66.5189 86.5019 66.7433 86.3673 66.9216C86.0878 67.2923 85.5591 67.3632 85.1874 67.0857C81.9205 64.6086 73.2525 59.4868 63.3033 65.3216C58.72 68.0233 53.1069 69.3743 47.584 69.3764ZM48.8325 59.7766C37.9861 59.7766 31.5101 53.4777 31.5101 42.9302C31.5101 38.0169 34.8457 32.82 39.0685 26.2399C41.9961 21.6788 45.3154 16.5083 48.0669 10.5033C48.1334 10.3567 48.2408 10.2322 48.3763 10.145C48.5117 10.0577 48.6693 10.0113 48.8304 10.0113C49.1342 9.94245 49.4581 10.1995 49.597 10.4993C52.5053 16.7656 55.8228 21.9442 58.7493 26.5133C62.8677 32.9437 66.1214 38.0208 66.1214 42.9302C66.1214 53.4777 59.6578 59.7766 48.8325 59.7766ZM48.8356 12.8203C46.2027 18.244 43.181 22.9528 40.4862 27.1512C36.4125 33.4985 33.1952 38.5112 33.1952 42.9302C33.1952 47.4893 34.7193 58.0916 48.8325 58.0916C62.9165 58.0916 64.4363 47.4893 64.4363 42.9302C64.4363 38.5151 61.3012 33.62 57.3305 27.4226C54.6279 23.2038 51.5961 18.4708 48.8356 12.8203ZM52.7364 53.0383C52.5546 53.0382 52.3777 52.9794 52.2321 52.8707C52.0864 52.7619 51.9798 52.609 51.9282 52.4347C51.8651 52.2204 51.8896 51.9898 51.9962 51.7935C52.1029 51.5972 52.2831 51.4512 52.4973 51.3876C57.7479 49.8342 58.5317 45.085 58.5317 42.3913C58.5317 42.1679 58.6205 41.9536 58.7785 41.7955C58.9365 41.6375 59.1509 41.5488 59.3743 41.5488C59.5978 41.5488 59.8121 41.6375 59.9701 41.7955C60.1281 41.9536 60.2169 42.1679 60.2169 42.3913C60.2169 47.7744 57.5771 51.6429 52.9755 53.0038C52.8977 53.0261 52.8173 53.0377 52.7364 53.0383ZM48.8325 43.8395C48.6091 43.8395 48.3947 43.7507 48.2367 43.5927C48.0787 43.4347 47.9899 43.2203 47.9899 42.9968V37.9094H42.9277C42.816 37.911 42.7051 37.8904 42.6014 37.8488C42.4978 37.8072 42.4035 37.7454 42.3239 37.667C42.2444 37.5886 42.1812 37.4951 42.1381 37.3921C42.095 37.2891 42.0728 37.1785 42.0728 37.0668C42.0728 36.9551 42.095 36.8445 42.1381 36.7415C42.1812 36.6385 42.2444 36.545 42.3239 36.4666C42.4035 36.3882 42.4978 36.3264 42.6014 36.2848C42.7051 36.2432 42.816 36.2226 42.9277 36.2242H47.9899V31.1368C47.9883 31.0251 48.0089 30.9142 48.0505 30.8105C48.0921 30.7069 48.1539 30.6126 48.2323 30.533C48.3107 30.4535 48.4041 30.3903 48.5072 30.3472C48.6102 30.3041 48.7208 30.2819 48.8325 30.2819C48.9441 30.2819 49.0547 30.3041 49.1578 30.3472C49.2608 30.3903 49.3542 30.4535 49.4326 30.533C49.511 30.6126 49.5728 30.7069 49.6144 30.8105C49.6561 30.9142 49.6767 31.0251 49.675 31.1368V36.2242H54.7038C54.9252 36.2274 55.1364 36.3176 55.2918 36.4753C55.4472 36.633 55.5343 36.8454 55.5343 37.0668C55.5343 37.2882 55.4472 37.5007 55.2918 37.6583C55.1364 37.816 54.9252 37.9062 54.7038 37.9094H49.675V42.9968C49.675 43.2203 49.5863 43.4346 49.4283 43.5926C49.2703 43.7507 49.056 43.8395 48.8325 43.8395Z" fill="#0066FF"/>
<path d="M86.1628 89.9999H13.8386C13.3739 89.9999 12.9963 89.6233 12.9963 89.1574C12.9963 88.6914 13.3739 88.3147 13.8386 88.3147H86.1628C86.3863 88.3147 86.6006 88.4035 86.7586 88.5615C86.9167 88.7195 87.0054 88.9338 87.0054 89.1573C87.0054 89.3808 86.9167 89.5951 86.7586 89.7531C86.6006 89.9111 86.3863 89.9999 86.1628 89.9999ZM86.1628 82.0486H13.8386C13.6172 82.0454 13.4061 81.9552 13.2507 81.7975C13.0953 81.6398 13.0082 81.4274 13.0082 81.206C13.0082 80.9846 13.0953 80.7721 13.2507 80.6145C13.4061 80.4568 13.6172 80.3666 13.8386 80.3634H86.1628C86.3842 80.3666 86.5954 80.4568 86.7508 80.6145C86.9062 80.7721 86.9933 80.9846 86.9933 81.206C86.9933 81.4274 86.9062 81.6398 86.7508 81.7975C86.5954 81.9552 86.3842 82.0454 86.1628 82.0486ZM60.3758 77.0946H54.6372C54.5255 77.0962 54.4146 77.0757 54.311 77.034C54.2073 76.9924 54.113 76.9306 54.0334 76.8522C53.9539 76.7738 53.8907 76.6804 53.8476 76.5773C53.8045 76.4743 53.7823 76.3637 53.7823 76.252C53.7823 76.1404 53.8045 76.0298 53.8476 75.9267C53.8907 75.8237 53.9539 75.7303 54.0334 75.6519C54.113 75.5735 54.2073 75.5117 54.311 75.4701C54.4146 75.4284 54.5255 75.4078 54.6372 75.4095H60.3758C60.5972 75.4127 60.8084 75.5029 60.9638 75.6605C61.1191 75.8182 61.2063 76.0307 61.2063 76.252C61.2063 76.4734 61.1191 76.6859 60.9638 76.8436C60.8084 77.0012 60.5972 77.0914 60.3758 77.0946ZM28.5838 74.399H18.1079C17.8845 74.399 17.6701 74.3102 17.5121 74.1522C17.3541 73.9942 17.2653 73.7799 17.2653 73.5564C17.2653 73.3329 17.3541 73.1186 17.5121 72.9606C17.6701 72.8026 17.8845 72.7138 18.1079 72.7138H28.5838C28.8052 72.717 29.0164 72.8072 29.1718 72.9649C29.3272 73.1226 29.4143 73.335 29.4143 73.5564C29.4143 73.7778 29.3272 73.9902 29.1718 74.1479C29.0164 74.3056 28.8052 74.3958 28.5838 74.399ZM79.6907 72.951H70.4494C70.3377 72.9526 70.2269 72.932 70.1232 72.8904C70.0196 72.8488 69.9252 72.787 69.8457 72.7086C69.7661 72.6302 69.703 72.5367 69.6598 72.4337C69.6167 72.3307 69.5945 72.2201 69.5945 72.1084C69.5945 71.9967 69.6167 71.8861 69.6598 71.7831C69.703 71.6801 69.7661 71.5866 69.8457 71.5082C69.9252 71.4298 70.0196 71.368 70.1232 71.3264C70.2269 71.2848 70.3377 71.2642 70.4494 71.2658H79.6907C79.8013 71.2658 79.9109 71.2875 80.0132 71.3299C80.1154 71.3722 80.2083 71.4342 80.2866 71.5125C80.3648 71.5907 80.4269 71.6836 80.4692 71.7858C80.5116 71.8881 80.5334 71.9977 80.5333 72.1083C80.5334 72.219 80.5116 72.3286 80.4692 72.4308C80.4269 72.5331 80.3648 72.626 80.2866 72.7042C80.2083 72.7825 80.1154 72.8445 80.0132 72.8869C79.9109 72.9292 79.8013 72.951 79.6907 72.951ZM47.584 69.3764C42.0469 69.3764 36.5998 68.0173 32.365 65.3035C25.1197 60.6432 20.6761 62.5654 15.5289 64.7871L14.1646 65.3702C13.7385 65.5584 13.2432 65.3501 13.0619 64.9206C13.019 64.8187 12.9967 64.7093 12.9961 64.5987C12.9956 64.4882 13.0168 64.3786 13.0587 64.2762C13.1005 64.1739 13.1622 64.0808 13.2401 64.0024C13.3179 63.9239 13.4105 63.8615 13.5126 63.8189L14.8613 63.2397C20.2181 60.9288 25.2793 58.7414 33.2752 63.8857C41.2366 68.9855 53.7781 68.9855 62.4485 63.8696C73.2786 57.5263 82.6701 63.0655 86.2043 65.7408C86.3822 65.876 86.4993 66.0762 86.5298 66.2976C86.5604 66.5189 86.5019 66.7433 86.3673 66.9216C86.0878 67.2923 85.5591 67.3632 85.1874 67.0857C81.9205 64.6086 73.2525 59.4868 63.3033 65.3216C58.72 68.0233 53.1069 69.3743 47.584 69.3764ZM48.8325 59.7766C37.9861 59.7766 31.5101 53.4777 31.5101 42.9302C31.5101 38.0169 34.8457 32.82 39.0685 26.2399C41.9961 21.6788 45.3154 16.5083 48.0669 10.5033C48.1334 10.3567 48.2408 10.2322 48.3763 10.145C48.5117 10.0577 48.6693 10.0113 48.8304 10.0113C49.1342 9.94245 49.4581 10.1995 49.597 10.4993C52.5053 16.7656 55.8228 21.9442 58.7493 26.5133C62.8677 32.9437 66.1214 38.0208 66.1214 42.9302C66.1214 53.4777 59.6578 59.7766 48.8325 59.7766ZM48.8356 12.8203C46.2027 18.244 43.181 22.9528 40.4862 27.1512C36.4125 33.4985 33.1952 38.5112 33.1952 42.9302C33.1952 47.4893 34.7193 58.0916 48.8325 58.0916C62.9165 58.0916 64.4363 47.4893 64.4363 42.9302C64.4363 38.5151 61.3012 33.62 57.3305 27.4226C54.6279 23.2038 51.5961 18.4708 48.8356 12.8203ZM52.7364 53.0383C52.5546 53.0382 52.3777 52.9794 52.2321 52.8707C52.0864 52.7619 51.9798 52.609 51.9282 52.4347C51.8651 52.2204 51.8896 51.9898 51.9962 51.7935C52.1029 51.5972 52.2831 51.4512 52.4973 51.3876C57.7479 49.8342 58.5317 45.085 58.5317 42.3913C58.5317 42.1679 58.6205 41.9536 58.7785 41.7955C58.9365 41.6375 59.1509 41.5488 59.3743 41.5488C59.5978 41.5488 59.8121 41.6375 59.9701 41.7955C60.1281 41.9536 60.2169 42.1679 60.2169 42.3913C60.2169 47.7744 57.5771 51.6429 52.9755 53.0038C52.8977 53.0261 52.8173 53.0377 52.7364 53.0383ZM48.8325 43.8395C48.6091 43.8395 48.3947 43.7507 48.2367 43.5927C48.0787 43.4347 47.9899 43.2203 47.9899 42.9968V37.9094H42.9277C42.816 37.911 42.7051 37.8904 42.6014 37.8488C42.4978 37.8072 42.4035 37.7454 42.3239 37.667C42.2444 37.5886 42.1812 37.4951 42.1381 37.3921C42.095 37.2891 42.0728 37.1785 42.0728 37.0668C42.0728 36.9551 42.095 36.8445 42.1381 36.7415C42.1812 36.6385 42.2444 36.545 42.3239 36.4666C42.4035 36.3882 42.4978 36.3264 42.6014 36.2848C42.7051 36.2432 42.816 36.2226 42.9277 36.2242H47.9899V31.1368C47.9883 31.0251 48.0089 30.9142 48.0505 30.8105C48.0921 30.7069 48.1539 30.6126 48.2323 30.533C48.3107 30.4535 48.4041 30.3903 48.5072 30.3472C48.6102 30.3041 48.7208 30.2819 48.8325 30.2819C48.9441 30.2819 49.0547 30.3041 49.1578 30.3472C49.2608 30.3903 49.3542 30.4535 49.4326 30.533C49.511 30.6126 49.5728 30.7069 49.6144 30.8105C49.6561 30.9142 49.6767 31.0251 49.675 31.1368V36.2242H54.7038C54.9252 36.2274 55.1364 36.3176 55.2918 36.4753C55.4472 36.633 55.5343 36.8454 55.5343 37.0668C55.5343 37.2882 55.4472 37.5007 55.2918 37.6583C55.1364 37.816 54.9252 37.9062 54.7038 37.9094H49.675V42.9968C49.675 43.2203 49.5863 43.4346 49.4283 43.5926C49.2703 43.7507 49.056 43.8395 48.8325 43.8395Z" stroke="#0066FF" stroke-width="0.8" mask="url(#path-1-outside-1_2072_822)"/>
</svg>
